<?xml version="1.0" encoding="UTF-8"?>
<svg width="260px" height="100px" viewBox="0 0 260 100" version="1.1" xmlns="http://www.w3.org/2000/svg" xmlns:xlink="http://www.w3.org/1999/xlink">
    <!-- Generator: Sketch 55.2 (78181) - https://sketchapp.com -->
    <title>aglp-logo</title>
    <desc>Created with Sketch.</desc>
    <g id="aglp-logo" stroke="none" stroke-width="1" fill="none" fill-rule="evenodd">
        <g id="Group" transform="translate(4.000000, 10.000000)">
            <path d="M142.888383,62.9045734 C142.888383,62.9045734 142.883286,62.9045734 142.883286,62.9045734 C142.407957,62.9045734 141.988266,63.0613789 141.5938,63.3799948 C141.300493,63.6125583 141.098167,63.9261693 140.936348,64.2751069 C140.936348,64.2751069 140.956568,64.2751069 140.956568,64.2751069 C141.118378,63.9261693 141.320713,63.6125583 141.608914,63.3799948 C142.003381,63.0613789 142.423071,62.9096783 142.888383,62.9045734 Z" id="path2877" fill="#BD0000"></path>
            <path d="M142.903505,62.9045734 C142.898493,62.9045734 142.893395,62.9045734 142.888383,62.9045734 C143.378919,62.9096783 143.702547,63.0765859 143.919996,63.4356333 C144.016066,63.5873339 144.0666,63.8148924 144.0666,64.1030943 C144.0666,64.1537279 144.056497,64.2194684 144.051485,64.2751069 C144.051485,64.2751069 144.071697,64.2751069 144.071697,64.2751069 C144.071697,64.2194684 144.081807,64.1537279 144.081807,64.1030943 C144.081807,63.8148924 144.036278,63.5873339 143.940208,63.4356333 C143.722759,63.0714887 143.394041,62.9045734 142.903505,62.9045734 Z" id="path2879" fill="#BD0000"></path>
            <path d="M155.796739,70.7659781 C156.002061,71.2936963 156.20729,71.8206137 156.421135,72.3359352 C156.750477,73.0360971 157.131053,73.7062916 157.588719,74.3319199 C160.060733,77.6921935 164.200622,79.5320733 169.456761,79.990178 C169.456761,79.990178 175.110707,79.990178 175.110707,79.990178 C176.898382,79.8506892 178.771664,79.5906992 180.713326,79.2109088 C184.061997,78.5560984 187.611761,77.5502408 191.298381,76.2059943 C194.091121,75.1877401 196.960859,73.9829823 199.873307,72.5827432 C206.215819,69.5423175 212.767865,65.6210242 219.195891,60.8887311 C221.312908,59.331517 223.344304,57.7336945 225.294583,56.1089766 C227.082258,54.6215455 228.79724,53.110915 230.435317,51.583676 C235.007116,47.1777294 238.458532,42.7029623 240.41303,38.7738461 C242.448738,34.6822111 242.85507,31.1838578 241.18711,28.9800105 C240.16499,27.6272404 238.454228,26.9022853 236.251697,26.7316895 C246.173857,19.2866414 251.956043,10.2553666 249.881836,4.56125076 C249.223161,2.74404674 247.77335,1.38828911 245.694832,0.638548465 C244.771069,0.306311693 243.73181,0.0958080639 242.598421,-3.55271368e-14 C242.598421,-3.55271368e-14 239.544814,-3.55271368e-14 239.544814,-3.55271368e-14 C235.280904,0.307543654 229.08026,1.83434367 223.81981,4.41236058" id="path2943" stroke="#989898" stroke-width="2.52849627" fill-opacity="0" fill="#FFFFFF"></path>
            <path d="M17.5888529,1.97814431 C17.5888529,1.97814431 -1.42108547e-14,78.7180012 -1.42108547e-14,78.7180012 C0.00506643945,78.7180012 46.2689264,78.7180012 46.2790439,78.7180012 C66.6255259,78.7180012 127.649172,78.7180012 127.649172,78.7180012 C127.649265,78.7180012 169.969888,78.7180012 169.969888,78.7180012 C164.928118,78.2779986 160.947583,76.5080865 158.575858,73.2817656 C158.135948,72.6849652 157.772419,72.0421125 157.453888,71.3695465 C157.251562,70.873998 157.061355,70.3739681 156.86913,69.8683174 C156.363395,68.2601233 156.161761,66.4757048 156.252819,64.5742116 C156.505694,59.2744695 158.992469,52.9704637 163.301029,46.3690163 C167.877571,39.3535068 174.51048,32.0004862 182.723024,25.1771088 C184.563782,23.6488997 186.467123,22.1397629 188.459504,20.6731596 C190.922287,18.8613223 193.404057,17.1925696 195.886974,15.6320138 C205.035054,9.87258864 214.160451,5.84256715 222.246603,3.79552542 C214.519498,6.31640244 205.838577,10.5960423 197.261896,16.4221782 C196.95339,16.6304874 196.648749,16.8438938 196.345248,17.0543128 C191.586675,20.3514715 187.275574,23.8531665 183.513189,27.3894873 C171.406685,38.7727912 165.007749,50.5682322 167.915547,57.4786246 C168.122886,57.9539537 168.37004,58.4078389 168.65825,58.8377317 C171.783488,63.434486 179.528873,64.2290469 189.344507,61.761252 C190.01206,61.5944291 190.679613,61.4053693 191.367294,61.2081401 C194.502642,60.3030029 197.831447,59.0804049 201.260095,57.5734625 C202.084369,57.209318 202.917513,56.835156 203.756987,56.4355926 C203.842947,56.3951612 203.92381,56.3547298 204.00977,56.3092011 C214.831785,50.932115 223.148653,44.7450069 224.948894,41.0276186 C225.343368,40.2189979 225.438198,39.5295617 225.170124,38.9890081 C223.885643,36.3846272 214.897533,38.1440907 204.00977,42.860738 C203.134962,43.2400819 202.24996,43.6303363 201.354848,44.0459845 C202.083044,43.3699074 202.841047,42.6911893 203.614688,42.023197 C204.848627,40.9602072 206.126163,39.9207709 207.486495,38.8941702 C209.615462,37.2820261 211.767805,35.82457 213.886755,34.5325279 C223.80856,27.0471408 228.82449,19.9664067 227.777669,17.338734 C227.58044,16.843632 227.160749,16.5031257 226.513408,16.2956943 C224.445092,15.6378117 220.670048,16.423056 216.083395,18.3027512 C212.300705,19.8542597 207.956118,22.1552317 203.551488,25.0190713 C203.551488,25.0190713 202.950999,25.4141611 202.950999,25.4141611 C202.950999,25.4141611 202.840339,25.477353 202.840339,25.477353 C202.840339,25.477353 200.722806,26.883829 200.722806,26.883829 C200.722806,26.883829 201.939606,24.6556351 201.939606,24.6556351 C203.744944,21.3508228 206.685612,17.9027489 210.346831,14.699635 C213.032074,12.3577003 216.099834,10.1511273 219.402006,8.2203596 C220.65106,7.48908298 221.898274,6.8099337 223.147336,6.1975721 C224.426805,5.57247511 225.706804,5.01698392 226.955867,4.52240549 C230.584823,3.08727107 234.571341,1.2749025 237.59234,1.03776541 C237.317228,1.03776541 228.583657,1.97814431 228.583657,1.97814431 C228.583657,1.97814431 199.98001,1.97814431 199.98001,1.97814431 C199.98001,1.97814431 73.8554967,1.97814431 73.8554967,1.97814431 C73.8554967,1.97814431 17.5888529,1.97814431 17.5888529,1.97814431 Z M154.593475,2.08879751 C154.097926,9.65250652 155.564437,20.7310848 158.891925,33.0312141 C159.483621,35.219862 160.127713,37.4472628 160.835698,39.7001575 C161.275693,41.0913417 161.729578,42.4607279 162.194797,43.8089321 C161.92171,44.2104359 161.646783,44.6094681 161.38881,45.0100017 C157.237055,51.3726411 154.810308,57.3857194 154.198393,62.614616 C152.443588,56.7383855 151.122548,50.3020055 150.374039,43.4770495 C150.161688,41.521581 149.995481,39.5879182 149.884212,37.67737 C149.06495,23.7994607 150.876618,11.219122 154.593475,2.08879751 Z M71.7378713,11.934052 C71.8325321,11.9318576 71.9258762,11.934052 72.0223003,11.934052 C72.0223003,11.934052 90.717408,11.934052 90.717408,11.934052 C92.3154076,11.934052 93.5511954,12.2335956 94.4311004,12.8348773 C95.3059082,13.4396777 95.6340179,14.2220191 95.4266711,15.1737321 C95.4266711,15.1737321 93.1984772,25.2403007 93.1984772,25.2403007 C93.1984772,25.2403007 86.6085487,25.2403007 86.6085487,25.2403007 C86.6085487,25.2403007 88.7735507,15.4424227 88.7735507,15.4424227 C88.7735507,15.4424227 72.275168,15.4424227 72.275168,15.4424227 C72.275168,15.4424227 66.317374,42.3708179 66.317374,42.3708179 C66.317374,42.3708179 64.1681026,52.1214039 64.1681026,52.1214039 C64.1681026,52.1214039 80.650747,52.1214039 80.650747,52.1214039 C80.650747,52.1214039 80.66657,52.058212 80.66657,52.058212 C80.66657,52.058212 83.9694419,37.1399887 83.9694419,37.1399887 C83.9694419,37.1399887 76.2259128,37.1399887 76.2259128,37.1399887 C76.2259128,37.1399887 76.9687005,33.7740018 76.9687005,33.7740018 C76.9687005,33.7739171 91.3020812,33.7740018 91.3020812,33.7740018 C91.3020812,33.7739171 87.1933066,52.3900099 87.1933066,52.3900099 C87.1376682,52.6550124 87.0402817,52.8950523 86.9087929,53.1328054 C86.5699575,53.7497252 85.9789627,54.2781441 85.1546961,54.7131341 C84.0118137,55.3148546 82.6439212,55.6138669 81.0458291,55.6138669 C81.0458291,55.6138669 62.3666292,55.6138669 62.3666292,55.6138669 C60.7686295,55.6138669 59.5328418,55.3148546 58.6528521,54.7131341 C57.7780443,54.1113211 57.4448835,53.3427777 57.6572813,52.3900099 C57.6572813,52.3900099 65.8907382,15.1737321 65.8907382,15.1737321 C66.1030898,14.2220191 66.765546,13.4396777 67.9134333,12.8348773 C67.9539571,12.8130793 67.9994858,12.8081591 68.0399172,12.7875007 C69.0877,12.2626853 70.3173356,11.9676307 71.7378713,11.934052 Z M101.036852,11.934052 C101.03676,11.934052 124.567614,11.934052 124.567614,11.934052 C126.145394,11.934052 127.385579,12.2335956 128.265576,12.8348773 C129.150486,13.4396777 129.489321,14.2220191 129.27697,15.1737321 C129.27697,15.1737321 124.883682,35.022448 124.883682,35.022448 C124.676343,35.9681012 123.998063,36.7396321 122.845071,37.3454874 C121.692079,37.9533601 120.334912,38.2620433 118.752027,38.2620433 C118.752027,38.2620433 101.653071,38.2620433 101.653071,38.2620433 C101.653071,38.2620433 98.3502839,53.164359 98.3502839,53.164359 C98.3502839,53.164359 97.8129872,55.6138669 97.8129872,55.6138669 C97.8129872,55.6138669 91.3652731,55.6138669 91.3652731,55.6138669 C91.3652731,55.6138669 91.8551932,53.4014036 91.8551932,53.4014036 C91.8551932,53.4014036 101.036852,11.934052 101.036852,11.934052 Z M133.543774,11.934052 C133.543774,11.934052 139.991404,11.934052 139.991404,11.934052 C139.991404,11.934052 132.69041,44.9151638 132.69041,44.9151638 C132.69041,44.9151638 131.094259,52.1214039 131.094259,52.1214039 C131.094259,52.1214039 146.51814,52.1214039 146.51814,52.1214039 C146.679951,53.3041942 146.868918,54.4659796 147.071252,55.6138669 C147.071252,55.6138669 123.872288,55.6138669 123.872288,55.6138669 C123.872288,55.6138669 125.7054,47.3330411 125.7054,47.3330411 C125.7054,47.3330411 133.543774,11.934052 133.543774,11.934052 Z M106.710132,15.4424227 C106.710132,15.4424227 102.42742,34.7537573 102.42742,34.7537573 C102.42742,34.7537573 118.499244,34.7537573 118.499244,34.7537573 C118.499244,34.7537573 122.766056,15.4424227 122.766056,15.4424227 C122.766056,15.4424227 106.710132,15.4424227 106.710132,15.4424227 Z M72.4392652,61.020574 C72.5023724,61.0183719 72.5653949,61.020574 72.628941,61.020574 C73.3773573,61.020574 74.0310203,61.1519703 74.5568906,61.3998332 C75.1182721,61.6628106 75.5196835,62.0534116 75.7421448,62.5692644 C75.9595936,63.0699026 76.0164563,63.6381369 75.9001746,64.2601616 C75.9001746,64.2601616 75.852798,64.497214 75.852798,64.497214 C75.852798,64.497214 74.0038633,64.497214 74.0038633,64.497214 C74.0037786,64.497214 74.0195939,64.2759846 74.0195939,64.2759846 C74.0674094,63.8413488 74.0135342,63.4996182 73.8458335,63.2645909 C73.8239431,63.235147 73.7922201,63.1962094 73.7667262,63.169753 C73.7250628,63.1271271 73.6623945,63.0785186 73.6087811,63.0433615 C73.3500231,62.8803192 72.9453624,62.7904938 72.4235346,62.7904938 C71.7306643,62.7904938 71.2129712,62.9111721 70.8590212,63.15393 C70.5150962,63.3915984 70.2976473,63.6571244 70.2268866,63.9757404 C70.1560488,64.2993611 70.2723305,64.469441 70.3532781,64.5604059 C70.3558267,64.5629545 70.3660289,64.5734185 70.3691011,64.5762289 C70.4715848,64.6635057 70.8273829,64.8683038 71.9336145,65.1293486 C72.9348985,65.3721065 73.5979707,65.5901713 73.972225,65.7772985 C74.5386114,66.0655003 74.9343095,66.4391387 75.1416485,66.8992607 C75.3489953,67.3544703 75.3945239,67.887278 75.26804,68.4637741 C75.1416485,69.0251556 74.8552946,69.5428487 74.4304991,70.0282876 C74.0108085,70.5137264 73.4766764,70.8980828 72.8343474,71.1661575 C72.1972079,71.429135 71.4981009,71.576978 70.7800063,71.576978 C69.8696872,71.576978 69.1389419,71.4392447 68.567543,71.1661575 C67.9708273,70.8829682 67.5403262,70.4360281 67.2875432,69.8544348 C67.0447776,69.2881331 66.9929275,68.6451881 67.129421,67.9423005 C67.129421,67.9423005 67.1768823,67.7210711 67.1768823,67.7210711 C67.1768823,67.7210711 68.9942634,67.7210711 68.9942634,67.7210711 C68.9942634,67.7210711 68.9784482,67.9423005 68.9784482,67.9423005 C68.9329195,68.3619911 68.9778322,68.7008265 69.0890166,68.9536942 C69.195281,69.1964598 69.3975228,69.3974696 69.7211512,69.5541828 C70.0650762,69.7210981 70.4948766,69.8070582 70.9854127,69.8070582 C71.4254075,69.8070582 71.8274349,69.7331405 72.1864822,69.6016518 C72.5404323,69.4751679 72.8217814,69.308345 73.0240231,69.0959087 C73.2212601,68.8835571 73.3369258,68.6590784 73.387467,68.4163975 C73.4380929,68.1989487 73.4260505,68.0149862 73.3400904,67.8632856 C73.2440206,67.7014752 73.0537288,67.557944 72.7553325,67.4366498 C72.7553325,67.4365574 71.206642,66.9782833 71.206642,66.9782833 C70.341944,66.7608345 69.7597347,66.5534878 69.4209069,66.3461487 C68.9606925,66.0731462 68.6288946,65.722892 68.4568821,65.3032014 C68.2849619,64.8885156 68.2666827,64.4289172 68.3779519,63.9282791 C68.4942413,63.3922143 68.7527375,62.8821671 69.1523009,62.4270499 C69.5568769,61.9668355 70.0789666,61.6058556 70.7009914,61.3681949 C71.2509387,61.1619954 71.829637,61.0410477 72.4392652,61.020574 Z M89.0325704,61.0521276 C89.1325903,61.0443893 89.2266428,61.0521276 89.3328147,61.0521276 C89.3328147,61.0521276 90.4706,61.1785191 90.4706,61.1785191 C90.4706,61.1785191 90.8498669,61.2101574 90.8498669,61.2101574 C90.8499516,61.2101574 90.2968319,62.6166333 90.2968319,62.6166333 C90.2968319,62.6166333 90.1861787,62.8378627 90.1861787,62.8378627 C90.1861787,62.8378627 89.3169917,62.7588478 89.3169917,62.7588478 C89.0603435,62.7588478 88.8718149,62.7984862 88.7480568,62.8853317 C88.7398873,62.8914838 88.7240643,62.9102866 88.7165032,62.9168853 C88.6998948,62.9314686 88.6720294,62.9567854 88.6533113,62.9801619 C88.5771915,63.0799276 88.4845557,63.2582617 88.4162589,63.5806582 C88.4162589,63.5806582 88.3833886,63.7171517 88.353067,63.8335259 C88.752538,63.8335259 89.7120816,63.8335259 89.7120816,63.8335259 C89.7120816,63.8335259 89.3644607,65.3980393 89.3644607,65.3980393 C89.3644607,65.3980393 88.3707302,65.3980393 88.0369997,65.3980393 C87.9358326,65.8531488 86.6937157,71.4189405 86.6937157,71.4189405 C86.6937157,71.4189405 84.8605116,71.4189405 84.8605116,71.4189405 C84.8605116,71.4189405 86.0520873,66.0705976 86.2037956,65.3980393 C85.8952895,65.3980393 85.1450252,65.3980393 85.1450252,65.3980393 C85.1450252,65.3980393 85.4926461,63.8335259 85.4926461,63.8335259 C85.4926461,63.8335259 86.2473916,63.8335259 86.5356859,63.8335259 C86.5862194,63.6160771 86.6620697,63.3436058 86.6620697,63.3436058 C86.7733465,62.8378627 86.8896283,62.4744265 87.0413365,62.2215511 C87.248768,61.8726136 87.5413664,61.5806312 87.9105158,61.3681949 C88.2146331,61.191524 88.5991666,61.0858756 89.0325704,61.0521276 Z M93.4100357,61.1311425 C93.4100357,61.1311425 92.9308414,63.2873514 92.8095472,63.8335259 C93.1634972,63.8335259 93.994709,63.8335259 93.994709,63.8335259 C93.994709,63.8335259 93.6470881,65.3980393 93.6470881,65.3980393 C93.6470881,65.3980393 92.7753525,65.3980393 92.4618339,65.3980393 C92.3657717,65.8328445 91.6084776,69.2065696 91.6084776,69.2065696 C91.6084776,69.2065696 91.545278,69.6117539 91.545278,69.7280433 C91.5453704,69.7319085 91.5449315,69.7409635 91.545278,69.7438586 C91.5455398,69.7450905 91.5449315,69.7586267 91.545278,69.7596816 C91.5457169,69.7604746 91.5604003,69.7590656 91.5610163,69.7596816 C91.5610163,69.7596816 91.7506844,69.7754122 91.7506844,69.7754122 C91.7506844,69.7754122 92.6198714,69.7122203 92.6198714,69.7122203 C92.6198714,69.7122203 92.5250335,71.1186962 92.5250335,71.1186962 C92.5250335,71.1186962 92.5408565,71.3715639 92.5408565,71.3715639 C92.5408565,71.3715639 91.2924103,71.5137784 91.2924103,71.5137784 C90.7968617,71.5137784 90.4333332,71.4329155 90.1703557,71.2609107 C89.8922636,71.0788808 89.7304455,70.8374395 89.664705,70.5340229 C89.6545952,70.4783922 89.633059,70.397437 89.633059,70.2811552 C89.633059,70.0535966 89.6760391,69.6686242 89.8227348,69.0010708 C89.8227348,69.0010708 90.487039,66.0250689 90.6286375,65.3980393 C90.3909691,65.3980393 89.7595429,65.3980393 89.7595429,65.3980393 C89.7595429,65.3980393 90.1071638,63.8335259 90.1071638,63.8335259 C90.1071638,63.8335259 90.7234754,63.8335259 90.9763431,63.8335259 C91.0572906,63.4693813 91.3397869,62.2215511 91.3397869,62.2215511 C91.3397869,62.2215511 92.8095472,61.4472098 92.8095472,61.4472098 C92.8095472,61.4472098 93.4100357,61.1311425 93.4100357,61.1311425 Z M35.1755961,61.1943344 C35.1755961,61.1943344 42.2869907,61.1943344 42.2869907,61.1943344 C42.2869907,61.1943344 41.8919162,62.9643466 41.8919162,62.9643466 C41.8919162,62.9643466 37.147827,62.9643466 36.6926944,62.9643466 C36.6118008,63.3233939 36.2875179,64.7772465 36.1712054,65.3032014 C36.8286182,65.3032014 40.6750775,65.3032014 40.6750775,65.3032014 C40.6750775,65.3032014 40.2799954,67.0731212 40.2799954,67.0731212 C40.2799954,67.0731212 36.2312558,67.0731212 35.7761232,67.0731212 C35.6800379,67.5131161 34.8121291,71.4189405 34.8121291,71.4189405 C34.8121291,71.4189405 32.8999486,71.4189405 32.8999486,71.4189405 C32.8999486,71.4189405 35.1755961,61.1943344 35.1755961,61.1943344 Z M44.7048757,63.6913114 C44.7762217,63.6825259 44.8541894,63.6913114 44.9260974,63.6913114 C45.38123,63.6913114 45.8016136,63.8297453 46.2061665,64.1179548 C46.2061665,64.1179548 46.459018,64.2918076 46.459018,64.2918076 C46.459018,64.2918076 45.4792171,65.90369 45.4792171,65.90369 C45.4792171,65.90369 45.2105572,65.7140142 45.2105572,65.7140142 C45.0133511,65.5876227 44.800961,65.5244308 44.5784457,65.5244308 C44.3862752,65.5244308 44.2073945,65.5927199 44.0253415,65.7140142 C43.833171,65.8404981 43.6726079,66.0080217 43.5512598,66.2355802 C43.338862,66.6249492 43.1833423,67.0610788 43.0771473,67.5313953 C43.0771473,67.5313953 42.223768,71.4189405 42.223768,71.4189405 C42.223768,71.4189405 40.3906177,71.4189405 40.3906177,71.4189405 C40.3906177,71.4189405 42.0815689,63.8335259 42.0815689,63.8335259 C42.0815689,63.8335259 43.7882968,63.8335259 43.7882968,63.8335259 C43.7882968,63.8335259 43.729486,64.0635484 43.7092665,64.1495084 C43.7901986,64.0888575 43.8755119,64.005446 43.9463343,63.9599174 C44.1912635,63.8137529 44.449983,63.7225185 44.7048757,63.6913114 Z M50.1411337,63.6913114 C50.2515097,63.6828801 50.360161,63.6913114 50.4730086,63.6913114 C51.5046219,63.6913114 52.2852847,64.0528226 52.7960481,64.7659047 C53.1146409,65.2260267 53.2859681,65.7949694 53.2859681,66.4726249 C53.2859681,66.8467946 53.2398235,67.2495226 53.1437382,67.6894328 C53.1437382,67.6894328 53.0015083,68.2425447 53.0015083,68.2425447 C53.0015083,68.2425447 48.3655084,68.2425447 47.8496786,68.2425447 C47.8395611,68.3487244 47.8338633,68.4625422 47.8338633,68.558612 C47.8338633,68.9530782 47.9147954,69.2634323 48.0867079,69.4909909 C48.1684177,69.6022601 48.2631401,69.7024647 48.3711677,69.7754122 C48.574857,69.90831 48.8377806,69.980911 49.1455475,69.980911 C49.519748,69.980911 49.8484583,69.8778112 50.1569336,69.6806667 C50.450225,69.4935395 50.7308965,69.1945272 50.9786977,68.7798414 C50.9786977,68.7798414 52.938278,68.7798414 52.938278,68.7798414 C52.938278,68.7798414 52.7644637,69.1591006 52.7644637,69.1591006 C52.3902324,69.9177114 51.8680812,70.5093298 51.2157424,70.9291128 C50.5634037,71.3488034 49.7839882,71.576978 48.9242874,71.576978 C47.8067063,71.576978 46.9748246,71.2154667 46.459018,70.5023846 C45.9482554,69.8045095 45.8382644,68.8398764 46.1113286,67.6262332 C46.3844381,66.3922934 46.9293037,65.4062087 47.7232486,64.7184434 C48.4348755,64.1014235 49.242372,63.7591693 50.1411337,63.6913114 Z M58.3745829,63.6913114 C58.4848896,63.6828801 58.5936101,63.6913114 58.7063808,63.6913114 C59.7380788,63.6913114 60.5187493,64.0528226 61.0295049,64.7659047 C61.3481132,65.2260267 61.5193326,65.7949694 61.5193326,66.4726249 C61.5193326,66.841782 61.473188,67.2387122 61.3771181,67.6736098 C61.3771181,67.6736098 61.2349113,68.2425447 61.2349113,68.2425447 C61.2349113,68.2425447 56.5989113,68.2425447 56.0831047,68.2425447 C56.0780383,68.3133902 56.0723404,68.3771981 56.0673048,68.4479511 C56.0635088,68.4744999 56.0689679,68.5148389 56.0673048,68.542789 C56.0671585,68.5473627 56.0673048,68.5542155 56.0673048,68.558612 C56.0673048,68.6344623 56.0780383,68.7090884 56.0831047,68.7798414 C56.1083753,69.0681357 56.1836173,69.3089609 56.3201494,69.4909909 C56.3461592,69.5264098 56.3705905,69.5700982 56.3991489,69.6016518 C56.6307652,69.8494222 56.9585824,69.980911 57.3789505,69.980911 C57.7531741,69.980911 58.0869046,69.8778112 58.3903135,69.6806667 C58.683705,69.4935395 58.9643457,69.1945272 59.2121238,68.7798414 C59.2121238,68.7798414 61.18745,68.7798414 61.18745,68.7798414 C61.18745,68.7798414 60.9978589,69.1591006 60.9978589,69.1591006 C60.6236046,69.9177114 60.101515,70.5093298 59.4491685,70.9291128 C58.7968221,71.3488034 58.0173758,71.576978 57.1577211,71.576978 C56.0401093,71.576978 55.2082276,71.2154667 54.6924287,70.5023846 C54.358675,70.0472675 54.2025394,69.4676067 54.2025394,68.7798414 C54.2025394,68.6736618 54.2081987,68.559228 54.218347,68.4479511 C54.2385665,68.1850661 54.2790134,67.9195323 54.3447693,67.6262332 C54.6178411,66.3973906 55.1469299,65.4062087 55.9408748,64.7184434 C56.6524786,64.1014235 57.475775,63.7591693 58.3745829,63.6913114 Z M80.7991136,63.6913114 C80.9120613,63.6826106 81.0159464,63.6913114 81.1310038,63.6913114 C82.1829137,63.6913114 82.991365,64.0471094 83.5172352,64.7500817 C84.0381776,65.4529693 84.1645691,66.4011712 83.8965791,67.5945949 C83.6892401,68.5251258 83.3896118,69.2767067 82.9799386,69.8228812 C82.57035,70.369048 82.0482604,70.8152873 81.4312481,71.1186962 C80.8194178,71.4221051 80.1714603,71.576978 79.5191138,71.576978 C78.4469844,71.576978 77.6486506,71.2103695 77.1327977,70.5023846 C76.7990672,70.05228 76.6271471,69.4727117 76.6271471,68.7798414 C76.6271471,68.4056795 76.6681945,68.0080487 76.7693539,67.5630413 C77.0727627,66.2077148 77.6922389,65.1754932 78.6024733,64.513037 C79.2706427,64.0306704 80.008595,63.752047 80.7991136,63.6913114 Z M108.565219,63.6913114 C108.698556,63.6830495 108.82196,63.6913114 108.960301,63.6913114 C109.597448,63.6913114 110.098086,63.7557429 110.477353,63.9125408 C110.881929,64.0743588 111.168899,64.3031417 111.33071,64.5762289 C111.487515,64.8341092 111.567762,65.1508771 111.567762,65.5402461 C111.567762,65.5402461 111.378179,66.6938543 111.378179,66.6938543 C111.378179,66.6938543 111.030465,68.2583677 111.030465,68.2583677 C110.732069,69.5933899 110.666413,70.0940281 110.651206,70.2811552 C110.635999,70.5340229 110.659383,70.7804844 110.730221,71.0081277 C110.730221,71.0081277 110.856613,71.4189405 110.856613,71.4189405 C110.856613,71.4189405 108.991855,71.4189405 108.991855,71.4189405 C108.991855,71.4189405 108.91284,71.1818958 108.91284,71.1818958 C108.882518,71.0707036 108.891396,70.9291128 108.881286,70.8026289 C108.527252,71.0200777 108.172686,71.2129181 107.85407,71.3241026 C107.383753,71.4860054 106.895766,71.576978 106.400132,71.576978 C105.540532,71.576978 104.903916,71.3532 104.519552,70.9132898 C104.226337,70.5896614 104.092916,70.1939632 104.092916,69.7438586 C104.092916,69.5719384 104.115684,69.3936891 104.156115,69.2065696 C104.242076,68.8222055 104.398265,68.4663227 104.646036,68.1477068 C104.888793,67.8341882 105.175771,67.576308 105.499392,67.3891808 C105.81291,67.2020613 106.162464,67.0693406 106.526609,66.9782833 C106.526609,66.9782833 107.648663,66.7886922 107.648663,66.7886922 C108.513361,66.6875251 109.15877,66.5617496 109.623989,66.4251636 C109.634099,66.3746224 109.655635,66.3145951 109.655635,66.3145951 C109.728937,65.9892111 109.719797,65.7446053 109.639812,65.6192687 C109.633922,65.6111762 109.61485,65.5945679 109.608166,65.5876227 C109.591119,65.5694281 109.564925,65.5408621 109.544975,65.5244308 C109.354775,65.3739544 109.030446,65.3032014 108.596773,65.3032014 C108.106237,65.3032014 107.743416,65.3834482 107.490633,65.5402461 C107.242771,65.6969669 107.013364,65.9839368 106.811038,66.39361 C106.811038,66.39361 104.898903,66.39361 104.898903,66.39361 C104.898903,66.39361 105.072671,66.0143509 105.072671,66.0143509 C105.30023,65.4883959 105.571469,65.0521739 105.910297,64.7184434 C106.249132,64.3847129 106.706791,64.1261243 107.237758,63.9440944 C107.644621,63.8097952 108.089012,63.7206705 108.565219,63.6913114 Z M116.577362,63.6913114 C116.648731,63.6825259 116.726691,63.6913114 116.798591,63.6913114 C117.258806,63.6913114 117.689923,63.8297453 118.094499,64.1179548 C118.094499,64.1179548 118.331543,64.2918076 118.331543,64.2918076 C118.331543,64.2918076 117.351703,65.90369 117.351703,65.90369 C117.351703,65.90369 117.083105,65.7140142 117.083105,65.7140142 C116.885868,65.5876227 116.68415,65.5244308 116.466793,65.5244308 C116.274569,65.5244308 116.084893,65.5927199 115.897851,65.7140142 C115.705626,65.8404981 115.565968,66.0080217 115.439577,66.2355802 C115.23223,66.6249492 115.071651,67.0610788 114.965472,67.5313953 C114.965472,67.5313953 114.096293,71.4189405 114.096293,71.4189405 C114.096293,71.4189405 112.263088,71.4189405 112.263088,71.4189405 C112.263088,71.4189405 113.954078,63.8335259 113.954078,63.8335259 C113.954078,63.8335259 115.660806,63.8335259 115.660806,63.8335259 C115.660806,63.8335259 115.617826,64.0635484 115.597606,64.1495084 C115.678469,64.0888575 115.758809,64.005446 115.834659,63.9599174 C116.075661,63.8137529 116.322646,63.7225185 116.577362,63.6913114 Z M121.997859,63.6913114 C122.108081,63.6828801 122.216894,63.6913114 122.329665,63.6913114 C123.361363,63.6913114 124.147046,64.0528226 124.652781,64.7659047 C124.97641,65.2260267 125.142617,65.7949694 125.142617,66.4726249 C125.142617,66.8467946 125.080741,67.2495226 124.984587,67.6894328 C124.984587,67.6894328 124.858195,68.2425447 124.858195,68.2425447 C124.858195,68.2425447 120.217137,68.2425447 119.706381,68.2425447 C119.696271,68.3487244 119.674743,68.4625422 119.674743,68.558612 C119.674743,68.9530782 119.760787,69.2634323 119.92761,69.4909909 C119.953628,69.5264098 119.993798,69.5700982 120.022448,69.6016518 C120.039057,69.619315 120.068154,69.6484047 120.08564,69.6648437 C120.311705,69.8703425 120.619426,69.980911 121.002204,69.980911 C121.37645,69.980911 121.705176,69.8778112 122.013598,69.6806667 C122.306989,69.4935395 122.582532,69.1945272 122.8354,68.7798414 C122.8354,68.7798414 124.810819,68.7798414 124.810819,68.7798414 C124.810819,68.7798414 124.621143,69.1591006 124.621143,69.1591006 C124.246889,69.9177114 123.719702,70.5093298 123.072453,70.9291128 C122.415009,71.3488034 121.645757,71.576978 120.780974,71.576978 C119.663401,71.576978 118.847304,71.2154667 118.331543,70.5023846 C117.820795,69.8045095 117.700032,68.8398764 117.968015,67.6262332 C118.241102,66.3922934 118.770222,65.4062087 119.564167,64.7184434 C120.280244,64.1014235 121.099937,63.7591693 121.997859,63.6913114 Z M94.3265916,63.8335259 C94.3265916,63.8335259 96.2071723,63.8335259 96.2071723,63.8335259 C96.2071723,63.8335259 96.4391197,68.334834 96.444217,68.4005822 C96.520075,68.2393801 96.5789627,68.1037643 96.5864315,68.0845149 C96.5864315,68.0845149 98.6566803,63.8335259 98.6566803,63.8335259 C98.6566803,63.8335259 100.379223,63.8335259 100.379223,63.8335259 C100.379223,63.8335259 100.537261,68.2804275 100.537261,68.3057443 C100.587802,68.2147717 102.891846,63.8335259 102.891846,63.8335259 C102.891846,63.8335259 104.756604,63.8335259 104.756604,63.8335259 C104.756604,63.8335259 100.647829,71.4189405 100.647829,71.4189405 C100.647829,71.4189405 98.9569323,71.4189405 98.9569323,71.4189405 C98.9569323,71.4189405 98.7931815,67.305777 98.7830718,67.0731212 C98.0851967,68.5042902 96.6654464,71.4189405 96.6654464,71.4189405 C96.6654464,71.4189405 94.9270802,71.4189405 94.9270802,71.4189405 C94.9270802,71.4189405 94.3265916,63.8335259 94.3265916,63.8335259 Z M50.1727412,65.2715554 C49.7371275,65.289927 49.3414832,65.4469943 48.9717025,65.7456602 C48.678411,65.978316 48.4805427,66.2975402 48.3237834,66.646393 C48.3237834,66.6464854 51.4369795,66.646393 51.4369795,66.646393 C51.442046,66.590847 51.4527794,66.5231661 51.4527794,66.4726249 C51.4527794,66.1843384 51.4015914,65.9605604 51.3105495,65.8088521 C51.0880728,65.4447999 50.758092,65.2715554 50.2675483,65.2715554 C50.2381583,65.2715554 50.201777,65.2703311 50.1727412,65.2715554 Z M58.4061365,65.2715554 C57.9705305,65.289927 57.5749247,65.4469943 57.2051054,65.7456602 C56.911814,65.978316 56.7190198,66.2975402 56.5571864,66.646393 C56.5571864,66.6464854 59.6703979,66.646393 59.6703979,66.646393 C59.6754105,66.590847 59.6862209,66.5231661 59.6862209,66.4726249 C59.6862209,66.1843384 59.6400763,65.9605604 59.5440064,65.8088521 C59.4997944,65.7349344 59.4400289,65.6613709 59.3859766,65.6034457 C59.1747646,65.3852962 58.8841912,65.2715554 58.5009744,65.2715554 C58.4715305,65.2715554 58.4352262,65.2703311 58.4061365,65.2715554 Z M122.092697,65.2715554 C121.644702,65.2853611 121.226328,65.4370616 120.844166,65.7456602 C120.555964,65.978316 120.358111,66.2975402 120.196301,66.646393 C120.196301,66.6464854 123.293682,66.646393 123.293682,66.646393 C123.298779,66.590847 123.309505,66.5231661 123.309505,66.4726249 C123.309505,66.1843384 123.26336,65.9605604 123.16729,65.8088521 C122.949842,65.4498047 122.614787,65.2766526 122.124251,65.2715554 C122.109752,65.2717325 122.107111,65.2711165 122.092697,65.2715554 Z M80.6885451,65.3032014 C80.2705176,65.3527724 79.8817646,65.5435878 79.5191138,65.8720517 C79.0842162,66.2665179 78.7687649,66.885994 78.586735,67.7052481 C78.5108847,68.0490884 78.4760818,68.3430959 78.4760818,68.6059886 C78.4760818,68.9650359 78.5449869,69.2469933 78.6815729,69.4593449 C78.7178772,69.5139285 78.7661316,69.5714995 78.8079644,69.6173824 C79.0327972,69.8560979 79.3466701,69.980911 79.7403432,69.980911 C80.2510988,69.980911 80.7012035,69.7906192 81.1310038,69.396153 C81.5659015,68.9966742 81.8762555,68.3708689 82.0633827,67.5313953 C82.2353028,66.7627671 82.2113027,66.1888196 81.9685448,65.8246751 C81.7359737,65.470725 81.3958293,65.3032014 80.9255898,65.3032014 C80.8457895,65.3032014 80.7659815,65.2939694 80.6885451,65.3032014 Z M109.24473,68.0686919 C108.81493,68.1850661 108.333179,68.2829762 107.69604,68.3690286 C107.220711,68.4397817 106.881875,68.5144 106.684646,68.5902503 C106.512726,68.6610111 106.374292,68.7590136 106.257918,68.8905023 C106.146733,69.0168938 106.072115,69.1496068 106.036688,69.3013998 C106.026586,69.3620508 106.020873,69.4246267 106.020873,69.4751679 C106.020873,69.4793026 106.020781,69.4869485 106.020873,69.4909909 C106.021397,69.5030333 106.019549,69.5267639 106.020873,69.5384522 C106.024038,69.561305 106.030452,69.5960232 106.036688,69.6173824 C106.038975,69.6245046 106.049878,69.6421679 106.052511,69.6490207 C106.058048,69.6626492 106.061474,69.6834771 106.068334,69.6964897 C106.075449,69.7092328 106.091449,69.7315544 106.099888,69.7438586 C106.113155,69.7620531 106.13118,69.7900032 106.147349,69.8070582 C106.273741,69.9486567 106.525993,70.0124646 106.890052,70.0124646 C107.289616,70.0124646 107.673888,69.9366143 108.027922,69.7596816 C108.376868,69.5876767 108.658124,69.3310207 108.865463,69.0327091 C109.017172,68.8203575 109.138551,68.4934798 109.24473,68.0686919 Z M12.7170017,55.3978811 L55.1292589,11.6078365 L62.055328,11.6078365 L51.8148066,55.3978811 L46.1180428,55.3978811 L49.0257316,42.7925643 L31.2458262,42.7925643 L19.1633445,55.3978811 L12.7170017,55.3978811 L12.7170017,55.3978811 Z M35.5665505,38.2821243 L50.1082942,38.2821243 L52.7912665,27.289814 C53.8740755,22.9287646 54.9163684,19.2945337 55.9181528,16.3871135 C53.9161624,18.8962561 51.2674925,21.8733436 47.9721432,25.3183608 L35.5665505,38.2821243 L35.5665505,38.2821243 Z" id="path2945" fill="#989898"></path>
        </g>
    </g>
</svg>