<?xml version="1.0" encoding="UTF-8"?>
<svg width="1280px" height="740px" viewBox="0 0 1280 740" version="1.1" xmlns="http://www.w3.org/2000/svg" xmlns:xlink="http://www.w3.org/1999/xlink">
  <g id="Background" stroke="none" stroke-width="1" fill="none" fill-rule="evenodd">
    <g id="Vote" transform="translate(320.000000, -185.000000)">
      <g id="Group" transform="translate(34.000000, 96.000000)">
        <polygon id="Fill-1" fill-opacity="0.2" fill="#000000" points="207.846 449 519.616 269 311.769 149 0 329"></polygon>
        <polygon id="Fill-4" fill="#FEFEFE" points="363.7699 -0.0002 51.9999 179.9998 259.8459 300.0008 571.6159 120.0008"></polygon>
        <path d="M354.1654,139.6953 C363.1264,134.4823 359.1104,128.1243 350.4534,123.1263 C340.6444,117.4633 329.8144,116.4043 316.3384,115.5483 L310.6234,87.4353 C338.7034,87.4883 368.0714,93.4803 391.1544,106.8073 C422.8944,125.1323 435.8394,147.0323 404.4724,165.2783 C374.6004,182.6553 324.5064,162.9673 300.0094,180.5623 L256.7274,155.5743 C283.3204,133.4183 338.2324,148.9633 354.1654,139.6953 M211.3884,173.2543 C225.8264,164.8553 249.3954,165.1903 266.1314,174.8523 C282.8664,184.5143 283.5334,198.1733 269.0954,206.5713 C254.6564,214.9703 231.0874,214.6343 214.3524,204.9723 C197.6164,195.3103 196.9494,181.6533 211.3884,173.2543" id="Fill-5" fill="#0095D5"></path>
      </g>
    </g>
    <g id="Vote" transform="translate(-320.000000, 185.000000)">
      <g id="Group" transform="translate(34.000000, 96.000000)">
        <polygon id="Fill-1" fill-opacity="0.2" fill="#000000" points="207.846 449 519.616 269 311.769 149 0 329"></polygon>
        <polygon id="Fill-4" fill="#FEFEFE" points="363.7699 -0.0002 51.9999 179.9998 259.8459 300.0008 571.6159 120.0008"></polygon>
        <path d="M354.1654,139.6953 C363.1264,134.4823 359.1104,128.1243 350.4534,123.1263 C340.6444,117.4633 329.8144,116.4043 316.3384,115.5483 L310.6234,87.4353 C338.7034,87.4883 368.0714,93.4803 391.1544,106.8073 C422.8944,125.1323 435.8394,147.0323 404.4724,165.2783 C374.6004,182.6553 324.5064,162.9673 300.0094,180.5623 L256.7274,155.5743 C283.3204,133.4183 338.2324,148.9633 354.1654,139.6953 M211.3884,173.2543 C225.8264,164.8553 249.3954,165.1903 266.1314,174.8523 C282.8664,184.5143 283.5334,198.1733 269.0954,206.5713 C254.6564,214.9703 231.0874,214.6343 214.3524,204.9723 C197.6164,195.3103 196.9494,181.6533 211.3884,173.2543" id="Fill-5" fill="#0095D5"></path>
      </g>
    </g>
    <g id="Vote" transform="translate(-960.000000, 555.000000)">
      <g id="Group" transform="translate(34.000000, 96.000000)">
        <polygon id="Fill-1" fill-opacity="0.2" fill="#000000" points="207.846 449 519.616 269 311.769 149 0 329"></polygon>
        <polygon id="Fill-4" fill="#FEFEFE" points="363.7699 -0.0002 51.9999 179.9998 259.8459 300.0008 571.6159 120.0008"></polygon>
        <path d="M354.1654,139.6953 C363.1264,134.4823 359.1104,128.1243 350.4534,123.1263 C340.6444,117.4633 329.8144,116.4043 316.3384,115.5483 L310.6234,87.4353 C338.7034,87.4883 368.0714,93.4803 391.1544,106.8073 C422.8944,125.1323 435.8394,147.0323 404.4724,165.2783 C374.6004,182.6553 324.5064,162.9673 300.0094,180.5623 L256.7274,155.5743 C283.3204,133.4183 338.2324,148.9633 354.1654,139.6953 M211.3884,173.2543 C225.8264,164.8553 249.3954,165.1903 266.1314,174.8523 C282.8664,184.5143 283.5334,198.1733 269.0954,206.5713 C254.6564,214.9703 231.0874,214.6343 214.3524,204.9723 C197.6164,195.3103 196.9494,181.6533 211.3884,173.2543" id="Fill-5" fill="#0095D5"></path>
      </g>
    </g>
    <g id="Vote" transform="translate(960.000000, 185.000000)">
      <g id="Group" transform="translate(34.000000, 96.000000)">
        <polygon id="Fill-1" fill-opacity="0.2" fill="#000000" points="207.846 449 519.616 269 311.769 149 0 329"></polygon>
        <polygon id="Fill-4" fill="#FEFEFE" points="363.7699 -0.0002 51.9999 179.9998 259.8459 300.0008 571.6159 120.0008"></polygon>
        <path d="M354.1654,139.6953 C363.1264,134.4823 359.1104,128.1243 350.4534,123.1263 C340.6444,117.4633 329.8144,116.4043 316.3384,115.5483 L310.6234,87.4353 C338.7034,87.4883 368.0714,93.4803 391.1544,106.8073 C422.8944,125.1323 435.8394,147.0323 404.4724,165.2783 C374.6004,182.6553 324.5064,162.9673 300.0094,180.5623 L256.7274,155.5743 C283.3204,133.4183 338.2324,148.9633 354.1654,139.6953 M211.3884,173.2543 C225.8264,164.8553 249.3954,165.1903 266.1314,174.8523 C282.8664,184.5143 283.5334,198.1733 269.0954,206.5713 C254.6564,214.9703 231.0874,214.6343 214.3524,204.9723 C197.6164,195.3103 196.9494,181.6533 211.3884,173.2543" id="Fill-5" fill="#0095D5"></path>
      </g>
    </g>
    <g id="Vote" transform="translate(320.000000, 555.000000)">
      <g id="Group" transform="translate(34.000000, 96.000000)">
        <polygon id="Fill-1" fill-opacity="0.2" fill="#000000" points="207.846 449 519.616 269 311.769 149 0 329"></polygon>
        <polygon id="Fill-4" fill="#FEFEFE" points="363.7699 -0.0002 51.9999 179.9998 259.8459 300.0008 571.6159 120.0008"></polygon>
        <path d="M354.1654,139.6953 C363.1264,134.4823 359.1104,128.1243 350.4534,123.1263 C340.6444,117.4633 329.8144,116.4043 316.3384,115.5483 L310.6234,87.4353 C338.7034,87.4883 368.0714,93.4803 391.1544,106.8073 C422.8944,125.1323 435.8394,147.0323 404.4724,165.2783 C374.6004,182.6553 324.5064,162.9673 300.0094,180.5623 L256.7274,155.5743 C283.3204,133.4183 338.2324,148.9633 354.1654,139.6953 M211.3884,173.2543 C225.8264,164.8553 249.3954,165.1903 266.1314,174.8523 C282.8664,184.5143 283.5334,198.1733 269.0954,206.5713 C254.6564,214.9703 231.0874,214.6343 214.3524,204.9723 C197.6164,195.3103 196.9494,181.6533 211.3884,173.2543" id="Fill-5" fill="#0095D5"></path>
      </g>
    </g>
    <g id="Vote" transform="translate(-320.000000, 925.000000)">
      <g id="Group" transform="translate(34.000000, 96.000000)">
        <polygon id="Fill-1" fill-opacity="0.2" fill="#000000" points="207.846 449 519.616 269 311.769 149 0 329"></polygon>
        <polygon id="Fill-4" fill="#FEFEFE" points="363.7699 -0.0002 51.9999 179.9998 259.8459 300.0008 571.6159 120.0008"></polygon>
        <path d="M354.1654,139.6953 C363.1264,134.4823 359.1104,128.1243 350.4534,123.1263 C340.6444,117.4633 329.8144,116.4043 316.3384,115.5483 L310.6234,87.4353 C338.7034,87.4883 368.0714,93.4803 391.1544,106.8073 C422.8944,125.1323 435.8394,147.0323 404.4724,165.2783 C374.6004,182.6553 324.5064,162.9673 300.0094,180.5623 L256.7274,155.5743 C283.3204,133.4183 338.2324,148.9633 354.1654,139.6953 M211.3884,173.2543 C225.8264,164.8553 249.3954,165.1903 266.1314,174.8523 C282.8664,184.5143 283.5334,198.1733 269.0954,206.5713 C254.6564,214.9703 231.0874,214.6343 214.3524,204.9723 C197.6164,195.3103 196.9494,181.6533 211.3884,173.2543" id="Fill-5" fill="#0095D5"></path>
      </g>
    </g>
    <animateTransform
      attributeName="transform"
      type="translate"
      from="0, 0" to="640, -370"
      begin="0s" dur="2s"
      repeatCount="indefinite"
    />
  </g>
</svg>