<?xml version="1.0" encoding="UTF-8"?>
<svg width="280px" height="100px" viewBox="0 0 280 100" version="1.1" xmlns="http://www.w3.org/2000/svg" xmlns:xlink="http://www.w3.org/1999/xlink">
    <!-- Generator: Sketch 55.2 (78181) - https://sketchapp.com -->
    <title>cc-logo</title>
    <desc>Created with Sketch.</desc>
    <g id="cc-logo" stroke="none" stroke-width="1" fill="none" fill-rule="evenodd">
        <g id="cc.logo" transform="translate(10.000000, 19.000000)" fill="#989898" fill-rule="nonzero">
            <path d="M80.6359211,42.0071053 C78.27625,37.7051316 74.2513816,35.9928947 69.5790789,35.9928947 C62.7788816,35.9928947 57.3659211,40.80375 57.3659211,48.9467105 C57.3659211,57.2273684 62.4547368,61.8996711 69.81,61.8996711 C74.5284868,61.8996711 78.5533553,59.3090789 80.7736184,55.3765789 L75.5924342,52.7398026 C74.4352632,55.5159868 72.6776974,56.3490132 70.4574342,56.3490132 C66.6173026,56.3490132 64.8597368,53.1571711 64.8597368,48.9475658 C64.8597368,44.7371053 66.3401974,41.5452632 70.4574342,41.5452632 C71.5675658,41.5452632 73.7886842,42.1465132 75.0835526,44.9226974 L80.6359211,42.0071053 Z" id="Path"></path>
            <path d="M93.8617105,41.5444079 C97.9789474,41.5444079 99.7373684,44.73625 99.7373684,48.66875 C99.7373684,53.1563158 97.9789474,56.3481579 93.8617105,56.3481579 C89.7444737,56.3481579 87.9869079,53.1563158 87.9869079,48.9467105 C87.9869079,44.7371053 89.7444737,41.5444079 93.8617105,41.5444079 Z M93.8617105,35.9928947 C86.1823026,35.9928947 80.7701974,40.6651974 80.7701974,48.9467105 C80.7701974,57.2273684 86.1823026,61.8996711 93.8617105,61.8996711 C101.541118,61.8996711 106.954079,57.2273684 106.954079,48.9467105 C106.954079,40.6660526 101.541118,35.9928947 93.8617105,35.9928947 Z" id="Shape"></path>
            <path d="M108.432829,61.2513816 L115.649539,61.2513816 L115.649539,45.9396053 C115.649539,43.7193421 116.574934,41.8223684 119.488816,41.8223684 C122.265,41.8223684 123.004803,43.4413816 123.004803,45.8472368 L123.004803,61.2522368 L130.221513,61.2522368 L130.221513,46.1243421 C130.221513,43.6261184 131.470197,41.8223684 133.876053,41.8223684 C136.605197,41.8223684 137.576776,43.3951974 137.576776,46.865 L137.576776,61.2513816 L144.793487,61.2513816 L144.793487,42.4698026 C144.793487,36.8259211 139.612303,35.9928947 137.206447,35.9928947 C134.337895,35.9928947 131.654934,36.8721053 129.296118,39.2771053 C127.67625,37.1030263 125.595395,35.9928947 122.773026,35.9928947 C120.552763,35.9928947 117.499474,36.6403289 115.648684,38.8152632 L115.648684,36.6411842 L108.431974,36.6411842 L108.431974,61.2513816 L108.432829,61.2513816 Z" id="Path"></path>
            <path d="M147.102697,61.2513816 L154.319408,61.2513816 L154.319408,45.9396053 C154.319408,43.7193421 155.244803,41.8223684 158.158684,41.8223684 C160.934868,41.8223684 161.674671,43.4413816 161.674671,45.8472368 L161.674671,61.2522368 L168.891382,61.2522368 L168.891382,46.1243421 C168.891382,43.6261184 170.140066,41.8223684 172.545066,41.8223684 C175.274211,41.8223684 176.246645,43.3951974 176.246645,46.865 L176.246645,61.2513816 L183.463355,61.2513816 L183.463355,42.4698026 C183.463355,36.8259211 178.281316,35.9928947 175.876316,35.9928947 C173.007763,35.9928947 170.325658,36.8721053 167.965987,39.2771053 C166.346974,37.1030263 164.265263,35.9928947 161.442895,35.9928947 C159.222632,35.9928947 156.169342,36.6403289 154.318553,38.8152632 L154.318553,36.6411842 L147.101842,36.6411842 L147.101842,61.2513816 L147.102697,61.2513816 Z" id="Path"></path>
            <path d="M198.031053,41.5444079 C202.147434,41.5444079 203.905855,44.73625 203.905855,48.66875 C203.905855,53.1563158 202.147434,56.3481579 198.031053,56.3481579 C193.913816,56.3481579 192.155395,53.1563158 192.155395,48.9467105 C192.155395,44.7371053 193.913816,41.5444079 198.031053,41.5444079 Z M198.031053,35.9928947 C190.351645,35.9928947 184.938684,40.6651974 184.938684,48.9467105 C184.938684,57.2273684 190.350789,61.8996711 198.031053,61.8996711 C205.710461,61.8996711 211.123421,57.2273684 211.123421,48.9467105 C211.123421,40.6660526 205.710461,35.9928947 198.031053,35.9928947 Z" id="Shape"></path>
            <path d="M213.064868,61.2513816 L220.281579,61.2513816 L220.281579,45.9396053 C220.281579,43.7193421 221.206974,41.8223684 224.121711,41.8223684 C226.897039,41.8223684 227.636842,43.4413816 227.636842,45.8472368 L227.636842,61.2522368 L234.853553,61.2522368 L234.853553,43.0710526 C234.853553,39.3703289 233.233684,35.9928947 227.405066,35.9928947 C225.184803,35.9928947 222.131513,36.6403289 220.280724,38.8152632 L220.280724,36.6411842 L213.064013,36.6411842 L213.064013,61.2513816 L213.064868,61.2513816 Z" id="Path"></path>
            <path d="M258.951447,39.5559211 C255.620197,37.3356579 251.874145,35.99375 248.080197,35.99375 C243.082895,35.99375 237.670789,38.3996053 237.670789,44.5985526 C237.670789,53.3419079 252.242763,50.2886184 252.242763,54.12875 C252.242763,56.3498684 249.514474,56.6269737 248.310263,56.6269737 C245.026053,56.6269737 242.759605,55.2859211 240.538487,53.1571711 L236.050921,57.0426316 C239.660132,60.3738816 242.712566,61.9005263 248.079342,61.9005263 C253.444408,61.9005263 259.181513,59.5870395 259.181513,53.1109868 C259.181513,43.9049342 244.609539,47.3747368 244.609539,43.1651316 C244.609539,41.9164474 245.904408,41.2690132 247.708158,41.2690132 C249.975461,41.2690132 253.074934,42.1944079 254.508355,43.9057895 L258.951447,39.5559211 Z" id="Path"></path>
            <path d="M80.6359211,13.6936184 C78.27625,9.39164474 74.2513816,7.67940789 69.5790789,7.67940789 C62.7788816,7.67940789 57.3659211,12.4902632 57.3659211,20.6323684 C57.3659211,28.9130263 62.4547368,33.5861842 69.81,33.5861842 C74.5284868,33.5861842 78.5533553,30.9955921 80.7736184,27.0630921 L75.5924342,24.4263158 C74.4352632,27.2025 72.6776974,28.0346711 70.4574342,28.0346711 C66.6173026,28.0346711 64.8597368,24.8428289 64.8597368,20.6323684 C64.8597368,16.4227632 66.3401974,13.2309211 70.4574342,13.2309211 C71.5675658,13.2309211 73.7886842,13.8321711 75.0835526,16.6083553 L80.6359211,13.6936184 Z" id="Path"></path>
            <path d="M82.3960526,32.9378947 L89.6127632,32.9378947 L89.6127632,18.6892105 C89.6127632,15.9600658 91.3241447,15.2194079 95.6269737,14.7105263 L96.4129605,14.6181579 L96.3667763,8.23447368 C93.8223684,8.42006579 91.1855921,9.34460526 89.6127632,10.8250658 L89.6127632,8.32684211 L82.3960526,8.32684211 L82.3960526,32.9378947 Z" id="Path"></path>
            <path d="M120.922237,22.1128289 C120.876053,14.5257895 117.822763,7.67940789 108.847632,7.67940789 C101.352961,7.67940789 96.7730263,12.6758553 96.7730263,21.3730263 C96.7730263,28.3117763 101.214408,33.5861842 108.847632,33.5861842 C114.352961,33.5861842 118.284605,31.4121053 120.782829,26.7859868 L115.369868,23.9636184 C113.288158,26.9245395 112.038618,28.3117763 109.355658,28.3117763 C107.043026,28.3117763 104.035921,26.8313158 103.989737,22.1128289 L120.922237,22.1128289 L120.922237,22.1128289 Z M103.898224,17.6723026 C104.221513,14.4334211 106.719737,12.9538158 108.801447,12.9538158 C110.883158,12.9538158 113.47375,14.0639474 113.704671,17.6723026 L103.898224,17.6723026 Z" id="Shape"></path>
            <path d="M137.476711,22.6678947 C137.476711,26.4148026 135.348816,28.3117763 132.526447,28.3117763 C130.768026,28.3117763 129.149013,27.47875 129.149013,25.5364474 C129.149013,23.5471053 130.814211,22.8534868 132.618816,22.3446053 L137.476711,20.9565132 L137.476711,22.6678947 L137.476711,22.6678947 Z M144.415461,14.80375 C144.369276,9.25223684 140.159671,7.67940789 133.451842,7.67940789 C130.120592,7.67940789 123.552171,8.32684211 123.320395,15.405 L130.26,15.405 C130.630329,12.9529605 131.739605,12.1207895 134.053092,12.1207895 C135.99625,12.1207895 137.476711,12.9067763 137.476711,14.7575658 L137.476711,16.7930921 L134.839934,17.1634211 C126.975789,18.2735526 122.210263,20.3552632 122.210263,26.2771053 C122.210263,30.9955921 125.72625,33.5861842 130.444737,33.5861842 C133.035329,33.5861842 136.643684,32.3375 137.846184,30.3943421 L137.938553,30.3943421 C137.984737,31.2273684 138.124145,32.1057237 138.40125,32.93875 L145.062895,32.93875 C144.461645,31.4121053 144.415461,29.5159868 144.415461,27.80375 L144.415461,14.80375 L144.415461,14.80375 Z" id="Shape"></path>
            <path d="M161.387303,8.78953947 L157.084474,8.78953947 L157.084474,1.66519737 L149.867763,1.66519737 L149.867763,8.78953947 L146.352632,8.78953947 L146.352632,13.2300658 L149.867763,13.2300658 L149.867763,26.1838816 C149.867763,29.7460526 150.746974,33.5853289 156.900592,33.5853289 C158.473421,33.5853289 160.601316,33.4005921 161.526711,33.3073684 L161.526711,27.6173026 C161.155526,27.6634868 160.138618,27.7558553 159.352632,27.7558553 C158.056053,27.7558553 157.085329,27.2469737 157.085329,25.3038158 L157.085329,13.2309211 L161.388158,13.2309211 L161.388158,8.78953947 L161.387303,8.78953947 Z" id="Path"></path>
            <path d="M164.104474,8.32684211 L164.104474,32.9378947 L171.321184,32.9378947 L171.321184,8.32684211 L164.104474,8.32684211 Z M171.322039,5.55151316 L171.322039,0 L164.105329,0 L164.105329,5.55151316 L171.322039,5.55151316 Z" id="Shape"></path>
            <polygon id="Path" points="181.033553 32.9378947 188.296447 32.9378947 196.716513 8.32684211 189.037105 8.32684211 184.780461 25.7211842 184.688947 25.7211842 180.431447 8.32684211 172.706711 8.32684211"></polygon>
            <path d="M220.021579,22.1128289 C219.975395,14.5257895 216.922105,7.67940789 207.947829,7.67940789 C200.452303,7.67940789 195.874079,12.6758553 195.874079,21.3730263 C195.874079,28.3117763 200.31375,33.5861842 207.947829,33.5861842 C213.453158,33.5861842 217.384803,31.4121053 219.883026,26.7859868 L214.470066,23.9636184 C212.388355,26.9245395 211.138816,28.3117763 208.456711,28.3117763 C206.144079,28.3117763 203.136118,26.8313158 203.090789,22.1128289 L220.021579,22.1128289 L220.021579,22.1128289 Z M202.997566,17.6723026 C203.321711,14.4334211 205.819079,12.9538158 207.900789,12.9538158 C209.9825,12.9538158 212.573947,14.0639474 212.804868,17.6723026 L202.997566,17.6723026 Z" id="Shape"></path>
            <g id="Group" transform="translate(0.000000, 6.842105)">
                <path d="M27.0280263,0.423355263 C19.6026316,0.423355263 13.0684211,3.17131579 8.01894737,8.29434211 C2.82151316,13.5670395 0,20.3980263 0,27.5266447 C0,34.7288158 2.74710526,41.4118421 7.94539474,46.6101316 C13.1428289,51.8075658 19.9002632,54.6290789 27.0280263,54.6290789 C34.1557895,54.6290789 41.0620395,51.8075658 46.4082895,46.5357237 C51.4577632,41.5606579 54.1304605,34.9520395 54.1304605,27.5266447 C54.1304605,20.1756579 51.4577632,13.4926316 46.3338816,8.36875 C41.1364474,3.17131579 34.4534211,0.423355263 27.0280263,0.423355263 Z M27.1024342,5.32486842 C33.1910526,5.32486842 38.6117105,7.62638158 42.8444079,11.8590789 C47.0018421,16.0173684 49.2298026,21.5124342 49.2298026,27.5266447 C49.2298026,33.6152632 47.07625,38.9615132 42.9179605,43.04625 C38.5364474,47.3525 32.8934211,49.6548684 27.1015789,49.6548684 C21.2353289,49.6548684 15.7402632,47.3533553 11.5084211,43.1206579 C7.27572368,38.8871053 4.89980263,33.3184868 4.89980263,27.5266447 C4.89980263,21.6603947 7.27572368,16.0917763 11.5084211,11.7846711 C15.6667105,7.55282895 21.0138158,5.32486842 27.1024342,5.32486842 Z" id="Shape"></path>
                <path d="M26.7526316,23.0228289 C25.2217105,20.23125 22.6097368,19.1202632 19.5778289,19.1202632 C15.1646711,19.1202632 11.6521053,22.2419737 11.6521053,27.5266447 C11.6521053,32.9002632 14.9542763,35.9330263 19.7283553,35.9330263 C22.7910526,35.9330263 25.4021711,34.2515789 26.8432895,31.7003289 L23.4803947,29.9889474 C22.7294737,31.7901316 21.5894079,32.3306579 20.1482895,32.3306579 C17.6560526,32.3306579 16.5159868,30.2592105 16.5159868,27.5275 C16.5159868,24.7957895 17.4764474,22.7234868 20.1482895,22.7234868 C20.8684211,22.7234868 22.3095395,23.1143421 23.1502632,24.9146711 L26.7526316,23.0228289 Z" id="Path"></path>
                <path d="M42.3885526,23.0228289 C40.8567763,20.23125 38.2456579,19.1202632 35.21375,19.1202632 C30.8005921,19.1202632 27.2871711,22.2419737 27.2871711,27.5266447 C27.2871711,32.9002632 30.5901974,35.9330263 35.3634211,35.9330263 C38.4261184,35.9330263 41.0372368,34.2515789 42.4783553,31.7003289 L39.1154605,29.9889474 C38.3653947,31.7901316 37.2244737,32.3306579 35.7833553,32.3306579 C33.2919737,32.3306579 32.1501974,30.2592105 32.1501974,27.5275 C32.1501974,24.7957895 33.1115132,22.7234868 35.7833553,22.7234868 C36.5034868,22.7234868 37.9446053,23.1143421 38.7861842,24.9146711 L42.3885526,23.0228289 Z" id="Path"></path>
            </g>
        </g>
    </g>
</svg>