<svg width="980" height="980" viewBox="0 0 980 980" xmlns="http://www.w3.org/2000/svg"><title>Icon</title><defs><linearGradient x1="50%" y1="0%" x2="15.766%" y2="68.468%" id="a"><stop stop-opacity=".2" offset="0%"/><stop stop-opacity="0" offset="100%"/></linearGradient></defs><g fill="none" fill-rule="evenodd"><path d="M489.846 890l-346.41-200V290l346.41 200v400z" fill="#B17F4A"/><path d="M431.641 603.56l-230-132.791c-2.75-1.587-5-5.136-5-7.886v-50c0-2.75 2.25-3.701 5-2.114l230 132.79c2.75 1.589 5 5.138 5 7.888v50c0 2.75-2.25 3.7-5 2.113" fill="#7D4E24"/><path fill="#D6A75C" d="M489.436 90l346.41 200h.41l-346.41 200-346.41-200 346.41-200"/><path fill="#936037" d="M489.846 890l346.41-200V290l-346.41 200z"/><path fill="#B17F4A" d="M314.909 389l3.464 2 346.41-200-3.464-2z"/><path d="M756.933 587.416a48.115 48.115 0 0 0 2.513-9.232c.006-.039-.008-.064-.036-.069-.028-.004-.065.016-.096.049a47.306 47.306 0 0 0-7.432 11.441c-.273.593-.776 1.112-1.283 1.325-.507.211-.913.071-1.036-.357-.01-.031-.937-3.157-2.68-5.12-.017-.02-.089.008-.089.008a.2.2 0 0 0-.074.107 39.002 39.002 0 0 0-.87 4.818c-.562 5.003.143 8.731 2.093 11.084.016.02.047.019.09-.005l.022-.02c.912-.9 2.726-2.84 4.627-5.725a43.502 43.502 0 0 0 4.251-8.304zm-3.959 17.246c1.397-2.923 2.563-6.089 3.462-9.41.011-.039.002-.07-.024-.079-.026-.009-.063.005-.094.037-2.19 2.145-5.401 5.789-8.265 10.962-.321.582-.846 1.05-1.339 1.194-.49.144-.849-.066-.915-.535-.02-.138-.5-3.394-1.852-5.735-.014-.024-.082-.007-.082-.007l-.037.022s-.033.041-.045.082a48.788 48.788 0 0 0-1.371 5.054c-.759 3.599-1.286 8.588.522 11.918.015.025.048.028.091.003l.015-.012c.768-.652 2.789-2.476 4.984-5.347 1.869-2.445 3.534-5.186 4.95-8.147zm-5.396 17.461c1.642-2.967 3.082-6.232 4.276-9.708.013-.038.008-.071-.014-.084-.021-.014-.057-.006-.089.022-.452.365-.911.762-1.364 1.178-1.879 1.728-4.712 4.775-7.537 9.48-.35.583-.89 1.026-1.376 1.13-.485.103-.814-.156-.837-.659-.001-.032-.168-3.314-1.188-5.933-.012-.028-.041-.034-.077-.018a.185.185 0 0 0-.086.096 48.044 48.044 0 0 0-1.757 4.824c-1.575 5.196-1.811 9.423-.704 12.563.011.032.046.037.086.014l.014-.009c.973-.727 2.941-2.337 5.195-4.967 1.998-2.33 3.834-4.998 5.458-7.929zm-7.063 17.794c1.822-2.82 3.5-5.977 4.985-9.379.018-.04.016-.076-.004-.094-.019-.016-.052-.012-.087.015-2.329 1.743-5.85 4.845-9.409 9.728-.401.549-.952.916-1.402.931-.45.016-.71-.322-.661-.86.003-.036.305-3.624-.346-6.484-.008-.031-.034-.042-.069-.03a.19.19 0 0 0-.091.089 58.181 58.181 0 0 0-2.265 5.066c-2.073 5.335-2.79 9.725-2.131 13.048.007.038.087.024.087.024l.005-.003c.795-.499 2.911-1.936 5.403-4.477 2.122-2.163 4.135-4.712 5.985-7.574zm-2.916 8.381c.021-.04.022-.079.006-.1-.017-.02-.052-.02-.084.003-2.358 1.518-5.972 4.306-9.807 8.964-.431.525-.984.835-1.407.788-.423-.046-.63-.438-.528-1 .007-.037.671-3.741.362-6.887-.004-.033-.027-.049-.062-.041-.035.007-.071.04-.094.081a62.707 62.707 0 0 0-2.649 5.035c-2.499 5.343-3.632 9.878-3.368 13.475.003.044.039.059.085.034.172-.089.375-.201.607-.335 1.1-.635 2.843-1.782 4.907-3.641 2.21-1.991 4.359-4.403 6.387-7.169 2-2.726 3.899-5.823 5.645-9.207zm-9.641 18.38c.026-.038.035-.079.025-.107-.011-.026-.039-.034-.074-.018-2.345 1.057-6.031 3.18-10.273 7.3-.478.462-1.019.66-1.378.501-.359-.16-.464-.643-.265-1.231.011-.038 1.282-3.876 1.632-7.323.004-.038-.014-.062-.046-.062-.032.002-.07.029-.099.068a61.297 61.297 0 0 0-3.264 5.057c-3.107 5.402-4.592 10.058-4.412 13.841.002.04.032.059.074.042a15.784 15.784 0 0 0 1.993-.99 26.544 26.544 0 0 0 3.035-2.064c2.947-2.294 7.603-6.76 13.052-15.014zm-83.489 63.515zm37.096-21.416zm13.374-16.032c9.809-11.132 18.628-24.061 26.21-38.431a224.11 224.11 0 0 0 6.948-14.395c-6.463 1.067-20.739 3.014-29.921 1.202a14.805 14.805 0 0 1-1.468 2.908c-1.34 2.069-3.138 3.805-5.356 5.176a17.163 17.163 0 0 1-1.331 2.861c-1.209 2.083-3.367 4.834-6.979 6.751-.327.768-.788 1.71-1.415 2.708-1.783 2.839-4.159 4.924-6.778 5.975a24.629 24.629 0 0 1-2.756 3.187c-1.505 1.464-3.688 3.184-6.395 4.208v21.146c0 1.48-1.202 3.374-2.682 4.229-1.48.854-2.681.347-2.681-1.134v-20.25c-1.054.997-2.236 1.962-3.446 2.66a9.686 9.686 0 0 1-1.405.676c-1.49.563-2.777.514-3.78-.131-1.786 1.319-4.908 3.323-7.131 3.094-.917-.095-1.591-.556-1.993-1.351-.713.329-1.604.688-2.522.927-2.342.607-3.953.17-4.682-1.232a22.03 22.03 0 0 1-1.84.893c-1.931.817-4.439 1.437-5.42-.249a3.366 3.366 0 0 1-.413-1.238c-11.36 12.401-24.334 25.738-30.157 31.675a46.139 46.139 0 0 0 7.348 6.824c7.581 5.615 16.4 8.362 26.21 8.167 4.579-.092 9.287-.833 14.094-2.203-.08.197-.13.394-.199.59a13.353 13.353 0 0 1 2.288-4.068c4.573-5.627 13.272-8.473 15.73-9.188 2.458-2.124 11.156-9.322 15.73-8.976 1.059.08 1.81.593 2.289 1.431-.069-.118-.119-.258-.199-.363 4.81-4.182 9.52-8.88 14.102-14.079zm11.885-6.172c-.081-1.698.123-3.582.607-5.602-3.283 4.548-6.832 9.285-10.669 13.639-4.9 5.561-9.958 10.582-15.14 15.055.021 1.552-.387 3.222-1.21 4.984.202-.167.402-.328.602-.497 4.769-4.024 9.499-8.53 14.058-13.389 6.055-6.456 10.206-11.842 11.776-13.951-.007-.081-.026-.148-.024-.239zm-28.55 31.601c.136-.185.275-.364.405-.552-.13.188-.269.368-.405.552zm-2.412 2.891c-.145.155-.288.313-.435.463.147-.151.289-.307.435-.463zm1.487-1.694zm-4.491-4.301c.633 1.338.508 3.216-.351 5.503 1.761-1.625 3.53-3.548 4.58-5.437.789-1.421 1.102-2.7.956-3.912-.106-.884-.498-1.323-1.233-1.378-1.47-.113-4.099 1.279-6.791 3.097 1.173.188 2.211.798 2.839 2.127zm-4.837 8.381c.976-1.627 2.111-3.958 1.512-5.226-.552-1.169-1.785-1.517-3.662-1.034-1.506.388-2.842 1.169-2.855 1.175h-.001c-.201.115-5.188 3.047-6.515 7.383-.61 1.998.549 3.015 1.534 3.502 1.331-1.962 3.088-3.705 5.013-4.816 1.907-1.101 3.648-1.392 4.974-.984zm-4.974 12.468c2.188-1.264 3.968-4.072 3.968-6.26 0-2.188-1.78-2.94-3.968-1.678-2.188 1.264-3.968 4.072-3.968 6.26 0 2.189 1.78 2.941 3.968 1.678zm-9.872-9.484c.628-2.055 1.667-3.865 2.84-5.407-.78.374-1.556.779-2.299 1.207-1.821 1.051-3.449 2.253-4.492 3.537-.735.906-1.128 1.796-1.234 2.803-.146 1.381.169 2.301.961 2.81 1.055.678 2.822.559 4.581.15-.734-1.093-1.086-2.713-.357-5.1zm-3.07 9.468c.15-.012.297-.022.447-.041-.15.018-.298.029-.447.041zm-1.454.017zm-1.313-.215c.13.037.27.055.405.083-.134-.028-.275-.046-.405-.083zm-12.038 1.306a73.692 73.692 0 0 0 10.229-2.374h.001c-.759-.812-1.139-1.976-1.119-3.491-5.179 1.509-10.234 2.328-15.131 2.425-3.602.072-6.87-.458-10.56-1.298.461 1.454.653 3.086.571 4.868a4.118 4.118 0 0 1-.044.215c5.106.627 10.499.517 16.053-.345zm-19.06 1.797a.19.19 0 0 0 .074-.127c.311-7.041-4.632-9.391-7.607-10.163-.028-.008-.067.01-.098.045-.032.035-.051.081-.048.115.282 3.208 1.553 5.543 1.565 5.566.198.36.093.964-.266 1.538-.36.574-.902 1.001-1.378 1.09-4.273.786-7.948 2.913-10.278 4.559a.188.188 0 0 0-.075.103c-.009.039-.001.069.025.079 4.389 1.574 8.783 1.556 13.058-.053 1.169-.44 2.199-.96 3.034-1.443a19.931 19.931 0 0 0 1.994-1.309zm-21.933-1.832c2.029.423 4.178.353 6.389-.207 2.063-.524 3.806-1.39 4.906-2.026.23-.133.434-.256.604-.363a.186.186 0 0 0 .084-.132c.376-6.403-3.648-9.926-6.08-11.457-.022-.015-.059-.004-.094.026a.183.183 0 0 0-.063.113c-.37 3.589.408 6.283.416 6.31.13.436-.061 1.075-.488 1.63-.427.556-.989.896-1.433.869-3.864-.231-7.469 1.153-9.812 2.355-.046.018-.068.053-.085.094-.017.04-.014.076.007.092 1.746 1.371 3.647 2.278 5.649 2.696zm-13.551-11.332c1.488 1.689 3.166 2.91 4.991 3.627 1.85.727 3.864.951 5.985.665 2.399-.324 4.413-1.242 5.399-1.76l.005-.003a.194.194 0 0 0 .088-.125c.772-4.958-.748-8.434-2.16-10.476a13.645 13.645 0 0 0-2.245-2.51c-.021-.017-.092.016-.092.016a.184.184 0 0 0-.069.11c-.697 3.741-.351 6.678-.335 6.801.06.482-.194 1.123-.647 1.638-.453.515-1.008.789-1.414.701-3.585-.779-7.098.185-9.414 1.13a.185.185 0 0 0-.089.088c-.019.04-.02.078-.003.098zm-2.169-5.756c1.625 1.056 3.461 1.603 5.458 1.628 2.346.027 4.424-.717 5.208-1.038l.015-.007a.206.206 0 0 0 .086-.114c1.148-4.416.924-8.368-.668-11.745a12.812 12.812 0 0 0-1.838-2.861c-.018-.021-.086.005-.086.005a.189.189 0 0 0-.076.104c-1.061 3.799-1.156 7.312-1.157 7.347-.013.519-.328 1.153-.803 1.617-.475.463-1.016.664-1.377.51-2.769-1.186-5.646-.961-7.573-.564-.425.087-.853.194-1.273.314a.172.172 0 0 0-.091.08c-.023.039-.029.079-.015.104 1.177 2.022 2.587 3.577 4.19 4.62zm-8.9-16.745c3.49 9.485 10.374 8.602 13.173 7.781l.024-.011a.19.19 0 0 0 .081-.099c2.965-8.276.899-13.559-.597-15.972-.014-.024-.081-.006-.081-.006l-.035.02s-.032.039-.047.078c-1.446 3.886-1.959 7.686-1.963 7.723-.073.548-.438 1.172-.932 1.591-.491.416-1.017.547-1.333.328-2.427-1.678-5.119-1.878-6.95-1.751-.402.029-.812.075-1.22.14-.031.005-.068.033-.094.071-.026.038-.036.079-.026.107zm-3.607-12.691c.641 2.506 1.575 4.558 2.778 6.099 1.215 1.557 2.711 2.611 4.448 3.134 2.058.619 4.024.314 4.774.155l.032-.013a.205.205 0 0 0 .077-.089c2.334-5.329 3.052-9.956 2.132-13.75-.298-1.225-.761-2.324-1.38-3.265-.015-.022-.044-.025-.107.009 0 0-.034.037-.05.075-1.747 3.954-2.565 8.004-2.599 8.173l.086-.029-.086.031c-.11.564-.505 1.176-1.007 1.562-.504.385-1.012.468-1.297.209-2.552-2.312-5.582-2.621-7.673-2.475-.032.003-.068.028-.095.065-.028.037-.04.079-.033.109zm-.793-15.463a.169.169 0 0 0-.047.111c.523 11.653 6.402 12.935 8.906 12.945.014 0 .072-.03.072-.03s.027-.028.044-.062c4.775-9.211 4.314-15.317 3.614-18.138-.006-.029-.033-.041-.065-.029a.18.18 0 0 0-.091.08c-2.24 3.947-3.626 8.092-3.64 8.133-.194.585-.65 1.158-1.161 1.46h-.001l-.021.014c-.502.29-.956.256-1.161-.087-1.588-2.654-3.761-3.75-5.304-4.202a9.099 9.099 0 0 0-1.05-.242c-.027-.005-.064.013-.095.047zm.614-15.652c-.753 12.458 4.648 14.58 7.006 14.915.015.002.074-.027.074-.027s.022-.021.04-.047c2.319-3.572 3.796-7.333 4.389-11.18.495-3.217.262-5.816-.02-7.43-.005-.029-.028-.044-.059-.036a.16.16 0 0 0-.089.071c-2.687 4.003-3.254 7.515-3.26 7.55v.001c-.097.637-.576 1.35-1.164 1.734-.589.38-1.126.332-1.308-.125-1.201-3.022-3.112-4.48-4.505-5.171a8.242 8.242 0 0 0-.955-.402c-.024-.009-.061.006-.093.037a.177.177 0 0 0-.056.11zm1.247-16.483c-.368 3.139-.363 5.889.014 8.174.381 2.309 1.143 4.171 2.263 5.535 1.316 1.603 2.874 2.132 3.484 2.285.016.005.078-.024.078-.024s.022-.021.04-.047c2.773-4.165 4.563-8.82 5.319-13.836.24-1.597.364-3.184.369-4.715 0-.036-.02-.056-.053-.051-.032.003-.069.03-.095.069-2.555 3.754-3.962 7.49-3.976 7.527-.23.617-.742 1.207-1.275 1.459-.534.257-.982.132-1.113-.31-1.119-3.735-3.283-5.436-4.902-6.204-.023-.011-.06.001-.093.03a.193.193 0 0 0-.06.108zm2.256-16.305c-.506 3.197-.631 6.02-.372 8.389.262 2.394.915 4.351 1.938 5.819 1.149 1.646 2.527 2.304 3.247 2.549.017.006.038.001.081-.024 0 0 .022-.019.038-.045 3.193-4.686 5.315-9.557 6.307-14.478.298-1.479.481-2.925.548-4.297.001-.036-.018-.058-.049-.056-.031.002-.068.028-.096.065-2.653 3.614-4.634 7.586-4.717 7.754-.292.588-.806 1.091-1.305 1.277-.501.187-.892.023-.994-.418-.91-3.9-2.934-5.779-4.47-6.668-.023-.013-.061-.003-.092.024a.202.202 0 0 0-.064.109zm4.404-17.506c-.865 3.328-1.331 6.317-1.387 8.885-.054 2.59.304 4.778 1.065 6.505.895 2.033 2.189 2.955 2.705 3.256.017.01.084-.017.084-.017s.016-.014.031-.031c3.843-4.621 6.502-9.535 7.903-14.608a28.18 28.18 0 0 0 .876-4.509c.003-.035-.011-.058-.04-.061-.028-.002-.063.017-.093.051-3.147 3.609-5.423 7.621-5.446 7.661-.335.593-.871 1.059-1.367 1.186-.496.129-.844-.108-.884-.603-.358-4.33-1.986-6.649-3.287-7.831-.019-.018-.053-.014-.088.011a.217.217 0 0 0-.072.105zm3.891-8.7c-.378 2.747-.326 5.137.156 7.105.54 2.213 1.518 3.397 2.054 3.905.017.015.045.013.087-.011 0 0 .015-.011.027-.025 4.107-4.415 7.169-9.215 9.099-14.269a32.659 32.659 0 0 0 1.38-4.538c.009-.037-.003-.067-.028-.073-.025-.007-.062.007-.094.04-3.156 3.181-5.865 7.072-5.979 7.236-.386.558-.933.948-1.394.99-.461.043-.743-.268-.718-.794.219-4.672-.983-7.414-2.03-8.892-.015-.022-.046-.023-.08-.003l-.036.02s-.031.039-.045.079c-1.217 3.399-2.024 6.504-2.399 9.23zm7.188-17.919c-.753 2.879-1.064 5.46-.926 7.67.164 2.604.954 4.102 1.286 4.627.016.023.082.005.082.005l.025-.018c3.705-3.22 6.971-7.554 9.705-12.884a56.6 56.6 0 0 0 2.502-5.617c.015-.038.012-.071-.008-.087-.019-.015-.052-.01-.084.013-3.593 2.571-6.196 6.592-6.221 6.631-.403.631-1.008 1.067-1.504 1.085-.498.019-.757-.383-.646-.999.898-4.978.225-8.162-.499-9.955-.01-.027-.038-.035-.072-.019a.186.186 0 0 0-.087.09c-1.61 3.417-2.805 6.598-3.553 9.458zm13.316-27.634c-7.73 13.765-6.474 20.409-5.575 22.627.012.029.085.012.085.012l.014-.009c6.184-4.608 10.972-12.941 13.275-17.498.021-.04.023-.079.005-.1-.016-.019-.085.005-.085.005-3.55 2.346-6.346 5.86-6.375 5.895-.451.571-1.05.904-1.488.828-.438-.076-.617-.543-.445-1.163 1.428-5.146 1.193-8.63.744-10.647-.006-.03-.031-.043-.066-.031a.168.168 0 0 0-.089.081zm3.359-.179c-.605 3.041-.371 5.019-.243 5.728.007.038.084.026.084.026.146-.077.291-.156.438-.241 3.674-2.122 7.492-6.655 10.09-10.153a94.208 94.208 0 0 0 3.772-5.491c.026-.04.034-.084.019-.109-.015-.025-.055-.02-.085-.005-3.277 2.002-6.366 4.826-6.397 4.855-.498.455-1.037.619-1.378.419-.341-.202-.407-.721-.165-1.325 2.1-5.253 2.447-9.062 2.369-11.333-.001-.034-.022-.052-.054-.047-.031.003-.068.031-.094.069-2.242 3.256-4.087 6.396-5.48 9.334-1.405 2.959-2.373 5.743-2.876 8.273zm20.769-34.004c-9.807 12.721-10.5 20.55-10.342 23.326.002.045.085.035.085.035.213-.114.426-.233.639-.355 5.969-3.447 11.539-10.371 14.383-14.278.029-.04.041-.085.03-.113-.01-.03-.078-.018-.078-.018-3.294 1.647-6.544 4.168-6.576 4.193-.502.392-1.018.481-1.307.222-.29-.259-.295-.808-.015-1.402 2.479-5.254 3.176-9.215 3.323-11.613.002-.035-.016-.058-.046-.056-.03 0-.066.023-.096.059zm-4.068-2.033c1.791-1.188 3.244-1.876 4.756-2.591.223-.106 2.331-1.135 2.966-1.484.753-.412 1.542-.88 2.347-1.395l.176-.226c2.937-3.732 6.569-7.448 10.796-11.05.541-.461 1.121-.67 1.553-.565.353.087.575.376.623.795a54.285 54.285 0 0 1 2.442-2.64c3.192-3.231 7.008-6.317 11.342-9.176.539-.359 1.046-.45 1.408-.268.26.129.416.388.454.737a47.457 47.457 0 0 1 3.862-3.336c3.42-2.652 7.341-4.97 11.654-6.89.572-.254 1.066-.186 1.322.182.073.103.122.23.151.373a39.903 39.903 0 0 1 3.679-2.38c3.492-1.991 7.342-3.48 11.445-4.425.566-.13.984.097 1.118.604a.724.724 0 0 1 .015.067c2.801-1.588 5.604-2.588 8.337-2.975l.403-.167a91.557 91.557 0 0 0 7.737-3.534c.267-.137.534-.28.803-.428-1.705.441-2.988.481-4.321.525-.836.026-1.677.052-2.659.175-3.251.405-6.332 1.661-6.674 1.803-.423.182-.743-.006-.742-.437 0-.427.321-.982.744-1.289l15.096-10.972-15.082 6.543c-.362.157-.654.05-.73-.261-.075-.313.082-.774.389-1.145.099-.12 2.479-2.982 5.907-5.724a140.97 140.97 0 0 0 7.502-6.435c.252-.232.504-.47.754-.71-1.787 1.182-3.243 1.868-4.756 2.582-.921.433-1.874.882-2.965 1.476-3.542 1.929-6.608 4.4-6.946 4.675-.423.351-.854.382-1.021.077-.163-.303-.009-.857.358-1.289l13.084-15.402-14.768 12.288c-.346.291-.727.37-.934.189-.208-.18-.204-.584.007-1.004.068-.136 1.723-3.398 4.568-7.038a164.675 164.675 0 0 0 6.122-8.353c.201-.293.398-.589.591-.886-1.592 1.745-2.995 2.97-4.453 4.243a80.166 80.166 0 0 0-2.831 2.555c-3.477 3.323-6.139 6.803-6.165 6.839-.346.455-.834.699-1.136.571-.307-.132-.343-.589-.083-1.089l9.091-17.497-12.215 16.173c-.289.384-.689.628-.996.609-.306-.022-.457-.307-.377-.707.026-.133.674-3.278 2.533-7.279.81-1.744 2.382-5.234 3.806-8.997.116-.307.229-.615.338-.923-1.154 2.039-2.292 3.617-3.473 5.256-.748 1.039-1.484 2.061-2.261 3.241-2.601 3.949-4.255 7.554-4.436 7.952-.223.5-.689.922-1.085.983-.395.065-.615-.247-.51-.724l3.723-16.939-7.808 17.611c-.184.417-.554.796-.907.935-.36.14-.642.017-.702-.306-.02-.105-.488-2.626.109-6.406.259-1.639.722-4.893.909-8.263.015-.275.026-.55.033-.822-.541 2.023-1.239 3.714-1.963 5.471a72.464 72.464 0 0 0-1.345 3.428c-1.515 4.248-2.01 7.709-2.03 7.856-.063.458-.434.993-.863 1.241-.429.248-.8.141-.864-.248l-2.189-13.714-2.114 16.192c-.05.392-.324.845-.683 1.128-.357.273-.726.338-.919.14-.16-.164-1.579-1.69-2.31-4.576-.326-1.289-1.033-3.819-2.099-6.291a14.128 14.128 0 0 0-.275-.597c.15 1.703-.006 3.248-.168 4.854-.098.984-.201 1.999-.236 3.101-.119 3.737.629 6.458.66 6.572.105.361-.111.912-.512 1.31-.398.397-.861.51-1.082.269l-7.883-8.534 3.796 12.569c.09.3-.049.757-.349 1.138-.304.382-.704.61-1.001.572-.247-.035-2.457-.382-4.397-2.033-.867-.737-2.642-2.151-4.817-3.346a10.244 10.244 0 0 0-.542-.279c.821 1.117 1.235 2.279 1.666 3.489.266.746.537 1.511.92 2.306 1.261 2.613 3.071 4.112 3.274 4.275.256.197.219.707-.085 1.185-.301.476-.789.794-1.134.74l-12.282-1.997 9.151 6.92c.218.166.231.559.034.98-.198.419-.567.784-.926.91-.115.04-2.858.993-5.815.82a46.723 46.723 0 0 0-6.795.111c-.24.022-.483.05-.729.082 1.372.364 2.293.971 3.25 1.602.594.392 1.196.788 1.932 1.146 2.557 1.244 5.36 1.328 5.389 1.329.374.008.523.378.356.876-.165.493-.598.966-1.019 1.1l-14.817 4.842 13.124.215c.315.005.48.277.413.673-.066.396-.352.843-.712 1.111-.115.087-2.897 2.163-6.341 3.547a90.92 90.92 0 0 0-7.738 3.553 39.09 39.09 0 0 0-.802.429c1.708-.445 2.993-.489 4.329-.537.779-.027 1.656-.057 2.657-.182 3.391-.432 6.644-1.808 6.677-1.82.426-.185.747.003.746.433 0 .43-.321.985-.747 1.292l-15.111 10.945 15.116-6.529c.361-.156.652-.048.727.263.075.312-.08.771-.388 1.143-.099.12-2.493 3.002-5.902 5.733a144.956 144.956 0 0 0-7.497 6.449c-.251.233-.503.47-.753.711zm95.112-39.43c-1.713-3.395-5.196-4.479-10.355-3.22a.17.17 0 0 0-.092.075c-.024.038-.032.078-.021.104.709 1.643 1.989 3.895 4.06 5.291.341.228.373.804.081 1.433-.292.628-.844 1.17-1.374 1.35-.031.01-3.194 1.106-6.515 3.664a.193.193 0 0 0-.071.111c-.007.04.008.068.038.07 3.249.286 9.347.284 14.594-2.746.228-.131.453-.268.677-.411.047-.029.084-.089.084-.136.02-1.228-.097-3.586-1.106-5.585zm3.787 7.747c-.031.006-3.009.584-6.214 2.435-.16.092-.321.188-.516.308 0 0-.031.039-.044.08-.014.04-.006.073.019.084a15.83 15.83 0 0 0 3.674 1.185c2.555.491 6.472.548 10.727-1.908l.26-.153s.037-.055.043-.102c.101-.853.269-3.087-.356-5.403-.528-1.958-1.502-3.63-2.893-4.971-1.367-1.315-3.154-2.32-5.313-2.985-.026-.008-.062.007-.095.04a.175.175 0 0 0-.053.11c-.072 2.369.279 5.781 2.359 8.582.244.328.171.95-.183 1.548-.354.597-.923 1.059-1.415 1.15zm9.547 5.407c-.027-.003-2.872-.311-6.469 1.51a.19.19 0 0 0-.084.092c-.017.039-.016.076.004.093a12.415 12.415 0 0 0 2.924 1.978c3.193 1.546 6.713 1.586 10.466.117l.055-.029s.035-.045.047-.089c.299-1.101.777-3.32.621-5.814-.139-2.209-.738-4.211-1.782-5.949-1.017-1.693-2.469-3.147-4.316-4.324-.022-.014-.058-.004-.093.024a.199.199 0 0 0-.064.11c-.388 2.634-.592 6.461.643 9.733.161.428-.027 1.102-.467 1.677-.441.576-1.037.926-1.485.871zm9.568 6.726c-.452.524-1.031.814-1.439.723-.027-.007-2.872-.602-6.169.365a.17.17 0 0 0-.091.08c-.023.038-.029.078-.015.103a11.555 11.555 0 0 0 2.096 2.722c2.51 2.385 5.734 3.148 9.583 2.266l.061-.031s.031-.035.047-.075c.359-.907 1.226-3.321 1.5-6.158.234-2.417.022-4.707-.629-6.808-.645-2.083-1.734-3.995-3.236-5.684-.018-.019-.085.006-.085.006a.187.187 0 0 0-.076.101c-.813 2.658-1.633 6.678-.927 10.73.082.47-.168 1.137-.619 1.66h-.001zm7.11 7.882c.02.5-.267 1.138-.729 1.624l.001-.001c-.464.489-1.01.725-1.393.606-.026-.008-2.624-.782-5.646-.445-.032.003-.071.031-.097.071-.027.039-.036.082-.026.109a14.608 14.608 0 0 0 1.695 3.024c2.131 2.886 4.942 4.202 8.357 3.91.012-.001.069-.031.069-.031s.028-.03.044-.065a27.336 27.336 0 0 0 2.115-6.313c.501-2.531.575-4.994.219-7.32a18.164 18.164 0 0 0-2.324-6.516c-.013-.024-.045-.027-.079-.007-.044.018-.067.056-.082.095-1.067 2.703-2.302 6.849-2.124 11.259zm5.085 11.191c-.033.53-.367 1.162-.85 1.611-.482.449-1.017.623-1.364.446-.022-.012-2.359-1.182-5.231-1.24-.031-.001-.071.024-.099.062-.028.037-.043.081-.035.111a17.042 17.042 0 0 0 1.271 3.425c1.691 3.335 4.182 5.106 7.403 5.264.014 0 .03-.005.073-.029 0 0 .024-.025.043-.057a30.294 30.294 0 0 0 2.634-6.374c.73-2.6 1.054-5.188.964-7.691a21.672 21.672 0 0 0-1.494-7.188c-.011-.027-.04-.034-.074-.019a.195.195 0 0 0-.087.09c-1.277 2.705-2.862 6.911-3.154 11.589zm-116.402-1.012c3.413-4.899 5.015-8.502 5.759-10.661.014-.04.008-.074-.016-.086-.024-.013-.062 0-.095.03-11.411 10.454-13.905 18.56-14.448 21.56-.009.05.018.079.063.066 1.156-.336 2.672-.938 4.532-2.012 2.124-1.226 4.696-3.068 7.689-5.829a72.2 72.2 0 0 0 4.062-4.069c.032-.035.051-.081.048-.115-.002-.035-.028-.051-.063-.041-1.025.282-2.179.709-3.428 1.265a37.246 37.246 0 0 0-3.26 1.649l-.01.006c-.53.305-1.01.251-1.196-.137-.187-.392-.042-1.045.363-1.626zm21.08-22.218c.021-.042.023-.082.005-.101-.019-.021-.054-.016-.09.008-5.836 4.188-10.481 8.848-13.431 13.476-1.518 2.382-2.299 4.288-2.685 5.468-.018.054.002.094.045.089 2.536-.288 5.214-1.451 7.632-2.846a44.113 44.113 0 0 0 4.405-2.941 61.438 61.438 0 0 0 4.221-3.505.182.182 0 0 0 .062-.114c.003-.038-.017-.06-.049-.058-2.981.227-6.318 1.522-6.352 1.535-.542.212-.956.017-1.031-.484-.075-.502.205-1.195.699-1.723 3.741-4.002 5.636-6.997 6.569-8.804zm16.374-9.722c.029-.039.041-.085.03-.114-.011-.029-.043-.036-.079-.017-5.738 2.932-10.6 6.694-14.06 10.879-1.816 2.198-2.898 4.08-3.487 5.271-.026.056-.018.105.02.111 3.89.707 8.922-1.51 12.759-3.727a53.72 53.72 0 0 0 3.173-1.985.187.187 0 0 0 .076-.106c.011-.041 0-.072-.027-.079-2.559-.675-5.72-.049-5.751-.043-.514.105-.847-.198-.83-.756.018-.557.38-1.241.903-1.702 3.723-3.283 6.01-6.017 7.273-7.732zm15.936-6.592c.035-.036.055-.083.052-.118-.003-.036-.029-.052-.065-.041-5.479 1.677-10.385 4.482-14.188 8.112-2.022 1.931-3.344 3.712-4.097 4.866-.034.052-.037.107-.006.126 4.768 2.941 11.441.123 14.994-1.817l.037-.021s.03-.037.046-.076c.015-.04.012-.075-.01-.09-2.12-1.452-5.045-1.781-5.074-1.783-.435-.047-.643-.472-.517-1.057.125-.585.561-1.224 1.084-1.59 3.771-2.633 6.292-4.994 7.744-6.511zm17.062 3.824c-2.846-1.368-6.486-.66-10.837 2.117-1.53.976-3.091 2.173-4.638 3.556a.19.19 0 0 0-.061.105c-.006.035.007.062.033.066 3.448.687 7.063-.045 10.756-2.177.203-.117.407-.239.611-.365a27.476 27.476 0 0 0 4.101-3.135.194.194 0 0 0 .057-.097c.007-.033-.002-.059-.022-.07zm-3.117-6.991a.178.178 0 0 0 .055-.11c.003-.035-.015-.058-.046-.057-2.089.046-4.225.508-6.346 1.371-2.263.921-4.54 2.306-6.767 4.116a38.474 38.474 0 0 0-4.693 4.556.174.174 0 0 0-.045.099c-.001.031.013.052.038.055 2.184.278 4.853-.492 7.973-2.293 1.309-.756 2.697-1.693 4.161-2.811 2.308-1.763 4.357-3.652 5.67-4.926zm-5.983 141.247c.779-.203 26.429-6.968 48.131-18.252 2.577-12.166 3.882-24.042 3.882-35.431 0-14.785-2.196-27.856-6.527-38.85-4.177-10.604-10.153-18.836-17.759-24.469-7.582-5.614-16.401-8.362-26.21-8.167-10.115.202-20.854 3.543-31.918 9.931-11.064 6.387-21.802 15.446-31.917 26.924-9.81 11.132-18.629 24.063-26.21 38.431-7.607 14.418-13.582 29.55-17.76 44.976-4.331 15.996-6.527 31.603-6.527 46.388 0 11.225 1.267 21.459 3.771 30.55 35.66-24.647 56.942-41.132 63.26-49.004 4.441-5.693 8.021-9.579 12.697-12.14v-40.695l-17.863 10.314c-3.893 2.247-6.036 1.867-7.148 1.154-.962-.616-1.589-1.75-1.87-3.321a1.746 1.746 0 0 1-.054-.369c-.209-1.504-.129-3.371.26-5.549 2.326-13.023 7.007-23.616 10.867-30.662a5.06 5.06 0 0 1-1.236.173c-2.466.025-3.662-2.128-3.119-5.618.663-4.261 4.333-10.313 4.987-11.365 6.149-10.743 15.291-16.41 16.422-17.084 1.36-.887 13.392-8.354 19.886.535 7.754 10.615 9.591 22.013 11.067 31.171l.07.437c.259 1.597.141 3.125-.177 4.517a3.367 3.367 0 0 1-.117.465c-.437 1.643-1.138 3.079-1.809 4.192-1.608 2.67-3.972 5.165-7.028 7.42a34.567 34.567 0 0 1-3.149 2.067c-.351.202-.605.338-.731.404l-13.895 8.023v41.311c3.204-1.27 5.516-1.721 8.144-1.954l.791-.488c4.57-2.847 8.455-3.688 13.831-4.853 1.471-.318 3.137-.679 4.958-1.112zm-7.174 15c5.335.388 9.339 2.437 11.251 3.624.038.027.142.097.309.196l.067.043.024.01c.596.337 1.869.938 3.699 1.17 8.992 1.471 22.646-.476 28.294-1.419a216.862 216.862 0 0 0 8.808-25.864 206.472 206.472 0 0 0 1.604-6.325c-11.307 5.777-23.367 10.278-31.521 13.044-9.396 3.188-16.307 5.002-16.597 5.077-1.911.456-3.601.822-5.091 1.144-5.127 1.111-8.524 1.855-12.278 4.191-.455.284-.891.55-1.316.808-.574.349-1.12.674-1.654.993l-.064.039c-3.513 2.097-5.832 3.483-7.951 6.197-1.56 1.998-2.525 3.341-3.378 4.528-.938 1.305-1.824 2.536-3.17 4.19-1.014 1.242-2.22 2.53-3.386 3.774-.903.963-2.564 2.734-3.017 3.42-.064.239-.089.477.369.857.506.415 1.766-.329 3.777-1.602 1.773-1.124 4.552-3.399 6.763-5.95a89.958 89.958 0 0 0 2.145-2.59c1.411-1.747 2.63-3.256 4.042-4.386 7.06-5.988 14.351-5.454 18.271-5.169zm-27.227-48.685c-9.931-.429-13.582 2.79-20.514 9.943.118.166.252.297.4.392.706.452 1.872.197 3.566-.781l16.548-9.554zm-20.923 5.05c6.888-6.956 12.468-11.417 24.735-10.584 4.787.325 10.333-2.647 11.397-3.247l5.479-3.163.11-.058c1.396-.717 5.449-3.265 7.284-6.32a7.288 7.288 0 0 0 .726-1.609c-.125-2.789-2.731-2.455-8.498-.653-1.556.487-3.027.948-4.333 1.178-5.205.92-9.491.033-9.671-.004-1.048-.226-1.225-1.653-.395-3.182.832-1.528 2.36-2.588 3.409-2.364.038.008 3.907.807 8.462.003 1.023-.182 2.353-.597 3.762-1.037 2.052-.642 4.566-1.428 6.695-1.569-.434-2.486-.86-4.574-1.333-6.531-6.672 2.365-12.165 1.04-12.396.983-.5-.126-.809-.53-.869-1.141-.062-.609.132-1.352.545-2.09.852-1.522 2.384-2.552 3.416-2.297.036.009 3.567.839 8.007-.128-1.763-5.561-4.148-10.357-7.287-14.652-2.241-3.07-5.542-4.089-9.807-3.028-3.11.773-5.593 2.406-5.617 2.422a4.443 4.443 0 0 1-.228.142c-.078.046-8.047 4.775-13.049 13.56a5.218 5.218 0 0 1-.118.2c-.925 1.479-3.406 5.843-3.783 8.262-.208 1.336.105 2.129.838 2.122.342-.004 1.638-.238 3.9-3.126.559-.79.926-1.261 1.024-1.387 1.064-1.351 2.515-1.964 3.305-1.397.791.567.64 2.116-.343 3.525-.314.451-.637.893-.958 1.311-1.004 1.427-3.043 4.495-5.287 8.818-2.993 5.766-6.985 15.021-9.014 26.377-.041.227-.077.448-.108.664zm21.674 82.8c-1.833 2.122-3.86 4.583-4.782 7.027.485.233.961.104 1.284-.018 1.989-.754 4.778-4.097 5.597-5.209.061-.082.111-.146.163-.208.557-.679 1.772-2.42 1.859-3.324.014-.138.055-.557-.65-.834-.029-.005-1.074-.208-3.471 2.566zm-10.069 2.235c-1.385 1.773-3.684 4.994-3.499 6.661.085.691.37.813.636.841 1.118.119 3.374-1.44 4.209-2.052.844-2.36 2.298-4.834 4.439-7.555.654-.887 1.376-2.157 1.406-2.739.016-.291-.207-.511-.646-.637-.526-.154-1.069-.057-1.679.297-1.216.701-2.7 2.415-4.866 5.184zm-11.576.201c.354-.542.675-1.022.993-1.478a5.711 5.711 0 0 0-.713.294 2.42 2.42 0 0 1-.177.083c-.155.066-.319.15-.489.248-1.8 1.039-4.323 3.728-5.481 5.914-.802 1.512-.533 1.976-.444 2.129.146.252.907.249 2.276-.322.278-.117.576-.253.889-.41.553-2.273 1.896-4.535 3.146-6.458zm2.947 1.369c-1.584 2.434-2.15 3.728-2.086 4.773.036.368.135 1.367 2.224.849.31-.078.647-.185 1.001-.32.627-2.455 2.324-5.463 5.046-8.944.368-.471.76-.972 1.171-1.484a.756.756 0 0 0-.025-.38c-.113-.287-.536-.417-1.197-.368-.434.033-.89.186-1.371.463-1.351.781-2.9 2.547-4.763 5.411zm34.773-28.775c-.185-.432-.148-1.029.101-1.683a4.788 4.788 0 0 1 1.22-1.783c.538-.495 1.117-.794 1.624-.838 5.869-.519 10.485 2.457 12.264 3.822 1.253-.755 2.203-1.618 2.827-2.57a6.35 6.35 0 0 0 .961-2.505c-1.223-.826-5.349-3.327-10.913-3.732-2.344-.171-4.87-.26-7.451.232-2.859.546-5.289 1.702-7.435 3.533a3.665 3.665 0 0 1-.124.101c-.65.513-1.572 1.656-2.639 2.978-.693.858-1.476 1.827-2.367 2.855-2.476 2.858-5.873 5.841-8.651 7.6-2.478 1.572-5.571 3.529-7.478 1.963-1.249-1.035-1.507-2.481-.841-4.688.634-2.057 2.596-4.151 5.081-6.801 1.053-1.123 2.139-2.282 2.937-3.261 1.163-1.427 1.887-2.436 2.805-3.712.909-1.264 1.939-2.697 3.616-4.845a26.787 26.787 0 0 1 2.181-2.476c-.799.351-1.656.752-2.596 1.214-3.985 1.967-6.843 5.047-11.022 10.408-3.623 4.524-10.702 10.846-21.681 19.379-10.467 8.132-24.822 18.517-42.666 30.863a78.886 78.886 0 0 0 1.743 4.896c2.271 5.766 5.11 10.886 8.437 15.22 6.348-6.473 21.958-22.515 34.101-36.019 2.416-3.686 6.068-7.129 8.886-8.377.649-.325 2.915-1.351 4.66-.892 1.961-1.756 3.926-2.752 5.692-2.886 1.966-.147 2.84.64 3.228 1.391l.001-.001c2.503-2.211 4.753-3.048 6.689-2.486 1.19.344 1.883 1.126 2.066 2.325 2.396-1.765 4.208-1.979 5.125-1.576 1.793.715 2.02 2.355 1.895 3.602-.093.928-.411 1.974-.944 3.115 1.207-.554 2.36-1.364 3.431-2.404.387-.378.76-.781 1.109-1.201-.528-.75-1.447-1.766-2.925-2.575-.378-.207-.567-.644-.533-1.231.033-.586.285-1.252.711-1.875.876-1.286 2.224-1.984 3.002-1.556 2.151 1.178 3.341 2.752 3.88 3.639 1.142-.521 2.062-1.347 2.827-2.527.46-.71.773-1.403.966-1.894-.225-.361-.794-1.032-2.214-1.854-1.207-.7-3.905-1.16-4.842-1.279-.466-.058-.774-.368-.872-.872-.097-.503.029-1.14.357-1.794a4.79 4.79 0 0 1 1.374-1.666c.56-.419 1.124-.62 1.587-.561.156.019 3.808.482 5.616 1.53 1.346.781 2.301 1.608 2.839 2.458 1.503-.86 2.69-1.989 3.488-3.364.246-.424.458-.871.631-1.33-1.615-1.221-5.725-3.851-10.686-3.412-.511.045-.893-.167-1.078-.598zm80.48-127.044c-1.538 2.663-3.561 6.879-4.471 11.83-.103.561-.493 1.175-.994 1.567-.5.391-1.013.481-1.305.228-.019-.016-1.952-1.667-4.533-2.264-.029-.006-.068.012-.099.048a.164.164 0 0 0-.047.115 23.3 23.3 0 0 0 .753 3.906c.774 2.659 2.422 6.026 5.889 6.956.017.004.079-.025.079-.025s.022-.02.038-.046c.585-.87 2.075-3.23 3.278-6.343 1.024-2.651 1.676-5.361 1.939-8.058a27.748 27.748 0 0 0-.372-7.96c-.006-.031-.031-.045-.065-.034a.174.174 0 0 0-.09.08zm2.448 13.384c-1.618 2.639-3.783 6.839-4.901 11.864-.127.569-.535 1.175-1.04 1.545-.507.371-1.007.431-1.278.152-.018-.017-1.747-1.762-4.158-2.557-.028-.008-.068.01-.1.044-.033.036-.053.082-.05.116.377 3.885 1.625 10.555 5.746 11.595.016.004.076-.025.076-.025s.02-.018.037-.041c.619-.862 2.204-3.213 3.545-6.393a32.448 32.448 0 0 0 2.262-8.148c.378-2.721.383-5.478.015-8.19-.005-.031-.028-.047-.061-.038-.033.007-.069.037-.093.076zm1.661 14.615c-1.777 2.562-4.221 6.693-5.761 11.829a2.831 2.831 0 0 1-1.128 1.49c-.521.333-.987.321-1.215-.007-.013-.021-1.505-2.147-3.763-3.293-.025-.013-.063 0-.097.032a.184.184 0 0 0-.059.114c-.135 3.834.259 10.611 4.433 12.922.018.01.084-.018.084-.018s.018-.015.033-.035c.656-.82 2.347-3.064 3.887-6.172a36.188 36.188 0 0 0 2.921-8.27 35.39 35.39 0 0 0 .813-8.612c-.001-.034-.022-.053-.053-.048-.032.004-.069.031-.095.068zm.322 15.153c-.029 0-.067.024-.096.059-1.921 2.466-4.622 6.498-6.578 11.705-.224.601-.709 1.167-1.226 1.43-.522.269-.965.186-1.132-.211-.012-.027-1.184-2.767-3.296-4.146-.021-.014-.059-.004-.091.023a.188.188 0 0 0-.066.107 30.544 30.544 0 0 0-.468 4.67c-.086 4.619 1.074 7.895 3.443 9.736.018.013.087-.014.087-.014s.015-.012.029-.027c.696-.779 2.506-2.923 4.262-5.999a39.77 39.77 0 0 0 3.562-8.327 41.133 41.133 0 0 0 1.615-8.949c.003-.035-.015-.058-.045-.057zm2.029 12.235c-.531 4.585-1.622 9.022-3.242 13.189-.4 1.029-.84 2.057-1.311 3.069.512-.335 1.023-.431 1.38-.249.392.199.543.703.4 1.348-1.06 4.793-2.618 9.337-4.629 13.507a57.207 57.207 0 0 1-1.439 2.786l.006-.003c.543-.293 1.049-.302 1.353-.026.304.276.374.811.189 1.431-1.475 4.906-3.39 9.486-5.693 13.613a59.963 59.963 0 0 1-1.728 2.897c.514-.224.968-.184 1.235.117.294.334.313.933.052 1.603-1.943 4.979-4.253 9.543-6.869 13.566a60.892 60.892 0 0 1-1.716 2.499c.384-.054.696.069.874.359.24.393.195 1.027-.12 1.699-2.338 4.986-4.977 9.483-7.843 13.366a60.023 60.023 0 0 1-2.723 3.425c.136-.036.225-.057.267-.067.551-.121.959.098 1.093.588.133.491-.028 1.174-.432 1.827-2.977 4.819-6.049 9.05-9.13 12.573-2.514 2.874-5.042 5.291-7.517 7.186-2.158 1.65-4.307 2.909-6.107 3.591-.079.024-.167.041-.255.059-1.63 2.2-5.917 7.785-12.306 14.606-4.753 5.076-9.69 9.782-14.67 13.991a145.008 145.008 0 0 1-7.907 6.222l.117-.115a51.393 51.393 0 0 1-3.745 3.215c.124.469.192.991.192 1.568 0 .632-.08 1.29-.228 1.962 1.995.809 8.275 2.634 17.311-1.58-.263.621-1.068 2.384-2.653 4.718-8.063 3.141-13.781 2.023-16.408 1.116-.266.443-.555.879-.864 1.303.591 1.931 3.028 6.182 12.847 2.989a44.902 44.902 0 0 1-5.936 5.119c-6.848.848-9.296-2.471-10.162-4.73-.461.354-.936.677-1.424.958-.506.292-1.001.526-1.479.707-.863 3.257-3.309 9.409-10.165 16.478-2.341 1.011-4.303 1.531-5.937 1.734 9.862-8.18 12.28-15.311 12.856-17.868a3.523 3.523 0 0 1-.84-.309c-2.613 3.927-8.346 11.686-16.441 17.879-1.584-.503-2.389-1.333-2.653-1.652v-.002c9.113-6.274 15.421-15.449 17.359-18.485a6.081 6.081 0 0 1-.215-1.659c0-.572.067-1.168.189-1.775-1.128.427-2.558.884-4.016 1.168.069-.014.137-.019.207-.033-.954.387-1.951.775-2.999 1.157-4.99 1.819-9.989 3.125-14.86 3.881-5.807.902-11.443 1.011-16.771.343-.11.097-.223.189-.343.274a25.083 25.083 0 0 1-6.067 3.428c-2.474.964-5.004 1.468-7.517 1.496-3.081.034-6.153-.649-9.13-2.03-.403-.188-.564-.685-.431-1.33.134-.644.542-1.335 1.091-1.848.038-.036.161-.15.363-.326a14.672 14.672 0 0 1-2.673-.281c-2.867-.573-5.505-2.023-7.843-4.31-.316-.307-.36-.891-.12-1.56.177-.495.489-.979.874-1.368a12.468 12.468 0 0 1-1.716-.519c-2.615-1.002-4.927-2.896-6.869-5.633-.261-.369-.241-.99.052-1.663.223-.51.579-.991.992-1.35a11.463 11.463 0 0 1-1.583-.84c-2.302-1.468-4.217-3.836-5.692-7.04-.199-.432-.109-1.087.241-1.753a3.843 3.843 0 0 1 1.169-1.345 11.043 11.043 0 0 1-1.486-1.212c-1.964-1.908-3.464-4.711-4.458-8.333-.134-.487.026-1.166.425-1.818.219-.357.496-.678.797-.931a11.54 11.54 0 0 1-1.063-1.167c-1.729-2.176-2.95-5.24-3.626-9.106-.09-.521.112-1.212.541-1.849.43-.637 1.022-1.124 1.581-1.301.027-.007.1-.031.212-.061a13.19 13.19 0 0 1-1.164-2.207c-1.149-2.761-1.693-6.368-1.616-10.722.01-.585.309-1.286.799-1.878.341-.412.737-.726 1.126-.901-.235-.6-.439-1.237-.608-1.904-.78-3.074-.906-6.957-.373-11.543.072-.616.424-1.313.943-1.868.217-.231.45-.424.685-.57a17.662 17.662 0 0 1-.565-2.351c-.558-3.246-.434-7.274.368-11.972.107-.629.489-1.32 1.023-1.852.237-.236.499-.428.752-.56a19.436 19.436 0 0 1-.296-1.831c-.389-3.363-.08-7.488.92-12.26.133-.639.538-1.325 1.081-1.835.481-.453 1.009-.708 1.446-.705a24.16 24.16 0 0 1-.092-2.56c.06-3.64.856-7.979 2.367-12.895.202-.656.658-1.32 1.22-1.773.519-.418 1.055-.6 1.463-.504a29.6 29.6 0 0 1 .242-2.8c.515-3.868 1.795-8.354 3.807-13.334a3.849 3.849 0 0 1 1.344-1.683c.555-.373 1.086-.469 1.45-.267.168-1.008.391-2.054.666-3.123 1.044-4.056 2.872-8.628 5.434-13.586.342-.662.899-1.24 1.465-1.54.417-.219.805-.272 1.098-.16a43.094 43.094 0 0 1 1.002-3.249c1.453-4.146 3.693-8.717 6.657-13.588.393-.648.968-1.171 1.538-1.403.473-.192.883-.155 1.14.09a50.464 50.464 0 0 1 1.532-3.602c1.964-4.173 4.699-8.639 8.129-13.274.457-.617 1.054-1.063 1.601-1.191.384-.09.701-.015.907.203.42-.888.878-1.785 1.362-2.676.928-1.707 2.798-4.61 5.407-8.395-1.665 1.02-3.59 2.481-6.416 5.136-.988.93-2.092 1.162-2.615.55-.523-.611-.313-1.889.497-3.027.112-.159 2.808-3.922 7.287-8.071a145.166 145.166 0 0 1 4.776-4.219l-12.177 5.26c-1.064.459-1.852.004-1.853-1.07-.001-1.074.787-2.441 1.85-3.21l12.088-8.755a46.5 46.5 0 0 1-1.406.063c-2.463.086-4.408.154-9.581 2.903-1.05.558-1.915.261-2.047-.706-.132-.968.504-2.323 1.51-3.213.14-.124 3.475-3.056 8.21-5.516a94.998 94.998 0 0 1 4.929-2.37l-10.533-.173c-.924-.014-1.305-.937-.896-2.167.408-1.229 1.485-2.393 2.527-2.734l11.881-3.882c-.366-.22-.701-.441-1.031-.659-1.763-1.16-3.155-2.077-7.842-1.573-.952.103-1.444-.68-1.167-1.856.278-1.174 1.244-2.401 2.292-2.906.146-.07 3.613-1.723 7.881-2.117a47.155 47.155 0 0 1 4.332-.195l-7.314-5.533c-.645-.487-.562-1.737.196-2.937.757-1.198 1.958-1.984 2.821-1.843l9.869 1.604a40.64 40.64 0 0 1-.481-1.304c-.793-2.23-1.419-3.991-4.903-5.809-.708-.369-.754-1.518-.109-2.721.646-1.204 1.795-2.114 2.724-2.156.129-.007 3.196-.127 6.346 1.603 1.164.639 2.22 1.34 3.093 1.974l-3.023-10.013c-.267-.886.269-2.275 1.26-3.262.99-.987 2.135-1.274 2.689-.674l6.348 6.872c.048-.612.106-1.195.164-1.767.298-2.959.533-5.295-1.218-9.158-.354-.785.053-2.123.968-3.171.914-1.048 2.07-1.502 2.739-1.077.093.06 2.294 1.49 3.843 5.08a40.967 40.967 0 0 1 1.406 3.812l1.69-12.949c.15-1.153 1.06-2.472 2.139-3.097l.004-.002c1.073-.62 1.985-.359 2.141.614l1.759 11.019c.249-.628.495-1.224.736-1.809 1.335-3.235 2.389-5.79 2.621-11.097.048-1.078.844-2.403 1.888-3.139 1.044-.736 2.031-.67 2.341.156.043.115 1.053 2.867.782 7.759a81.981 81.981 0 0 1-.478 5.258l6.288-14.182c.55-1.24 1.693-2.28 2.686-2.442.992-.163 1.534.6 1.271 1.793l-2.975 13.536c.423-.603.83-1.168 1.23-1.724 2.178-3.021 3.898-5.408 6.095-11.365.447-1.21 1.514-2.32 2.529-2.629 1.015-.31 1.684.271 1.585 1.376-.013.153-.359 3.82-2.426 9.282a133.943 133.943 0 0 1-2.335 5.737l9.808-12.986c.86-1.14 2.062-1.748 2.822-1.428.761.319.85 1.468.21 2.701l-7.277 14.006c.535-.481 1.046-.927 1.548-1.365 2.686-2.346 4.809-4.199 8.637-9.897.778-1.157 1.952-1.882 2.784-1.717.831.165 1.078 1.172.585 2.385-.069.169-1.717 4.19-5.263 9.388a161.154 161.154 0 0 1-3.811 5.339l11.823-9.838c1.041-.867 2.118-.95 2.531-.197.413.752.037 2.114-.884 3.198l-10.494 12.354c.569-.283 1.106-.535 1.634-.784 2.786-1.312 4.988-2.349 9.86-6.916.989-.927 2.092-1.156 2.612-.543.521.614.309 1.893-.502 3.031-.113.157-2.813 3.919-7.295 8.058a142.544 142.544 0 0 1-4.69 4.135l12.039-5.224c1.064-.461 1.854-.008 1.858 1.063.003 1.073-.783 2.44-1.845 3.211l-12.132 8.818c.517-.033.997-.048 1.468-.063 2.461-.078 4.404-.14 9.576-2.878 1.051-.556 1.913-.255 2.043.714.131.968-.509 2.324-1.515 3.213-.14.123-3.478 3.049-8.213 5.497-.738.381-1.452.732-2.149 1.069 3.992-.867 7.147-.466 9.367 1.229.197-.522.55-1.042.988-1.445.546-.501 1.146-.747 1.603-.656 3.344.672 6.023 1.978 7.967 3.883a11.656 11.656 0 0 1 1.542 1.863 3.943 3.943 0 0 1 1.031-1.27c.583-.462 1.198-.624 1.606-.425 2.962 1.447 5.203 3.432 6.657 5.901.409.694.76 1.434 1.045 2.208.317-.642.835-1.217 1.395-1.546.561-.324 1.113-.364 1.435-.072 2.415 2.198 4.094 4.822 4.994 7.799.208.688.375 1.403.501 2.131.353-.5.816-.911 1.282-1.129.574-.269 1.073-.215 1.338.145a20.03 20.03 0 0 1 3.706 9.032c.118.809.19 1.645.218 2.498.382-.48.855-.849 1.316-1.016.565-.205 1.028-.079 1.237.337a23.769 23.769 0 0 1 2.526 10.033c.029.945.005 1.913-.07 2.886l.003-.003c.461-.611 1.062-1.047 1.604-1.163.543-.115.947.104 1.081.588 1 3.618 1.31 7.385.92 11.197a31.545 31.545 0 0 1-.263 1.972c.307-.224.62-.368.91-.415.533-.085.916.166 1.023.671.801 3.773.925 7.658.367 11.546-.137.959-.319 1.93-.542 2.9.406-.334.838-.531 1.216-.547.508-.019.842.294.894.839.383 4.073.12 8.174-.784 12.189a39.788 39.788 0 0 1-.673 2.583c.406-.287.826-.436 1.176-.402.48.045.763.419.756 1a45.385 45.385 0 0 1-1.941 12.724 46.17 46.17 0 0 1-.944 2.78c.425-.267.856-.376 1.193-.285.442.119.664.558.592 1.174zm-94.4-105.664s-1.332 1.043-1.146-.355c0 0 .367-3.091 1.668-4.07 4.42-3.325 8.436-5.111 8.436-5.111 7.812-3.675 9.423.199 9.423.199.502.897-.499 1.577-.499 1.577-1.188.98-1.578.249-1.578.249s-1.619-3.303-16.304 7.51zm-12.524 10.082s2.2-.249 3.02 2.758c0 0 .333.697-1.027 1.481-1.263.73-1.772.814-2.01.468-.578-.844-1.493-.974-2.433-.79.176.307.273.702.273 1.177 0 1.877-1.521 4.277-3.4 5.361-1.876 1.084-3.398.441-3.398-1.436 0-.445.088-.918.243-1.396-2.733 2.251-3.11 3.642-3.11 3.642s-.456 1.378-1.84 1.833c0 0-1.166.555-.581-1.166 0 0 1.74-5.12 8.38-9.177 0 0 4.084-2.53 5.883-2.755zm12.22-1.665c-1.358.785-1.028-.294-1.028-.294.82-3.954 3.021-6.247 3.021-6.247 1.8-1.853 5.883-4.037 5.883-4.037 6.642-3.613 8.381-.501 8.381-.501.585 1.046-.582 1.838-.582 1.838-1.384 1.143-1.84.29-1.84.29s-.377-.954-3.108-.051c.154.3.242.672.242 1.116 0 1.877-1.522 4.278-3.4 5.36-1.877 1.085-3.398.442-3.398-1.435 0-.475.098-.982.272-1.494-.939.903-1.854 2.089-2.432 3.6-.238.622-.748 1.126-2.01 1.855zm-28.412 10.726s-1 .476-.499-1c0 0 1.611-5.736 9.422-11.08 0 0 4.017-2.852 8.436-4.63 1.302-.523 1.668 2.144 1.668 2.144.186 1.184-1.146 1.679-1.146 1.679-14.684 6.14-16.303 11.314-16.303 11.314s-.39 1.183-1.578 1.573z" fill-opacity=".8" fill="#221F1F"/><path d="M696.127 371l-346.41-200-69.28 40c-.002 0 346.41 200 346.41 200l69.28-40v200l-69.28 40V411" fill-opacity=".5" fill="#EEF"/><path fill="url(#a)" d="M181.846 378v240l207.846 120V498z" transform="translate(15 90)"/><path fill="#FEFEFE" d="M222.846 423l207.846 120-207.846 120L15 543z"/><path d="M288.528 516.552c8.96-5.213 4.945-11.571-3.712-16.57-9.81-5.662-20.64-6.721-34.115-7.577l-5.714-28.112c28.079.052 57.448 6.045 80.53 19.372 31.74 18.324 44.685 40.224 13.318 58.47-29.872 17.377-79.966-2.311-104.463 15.284L191.09 532.43c26.592-22.156 81.504-6.611 97.437-15.88M145.75 550.11c14.438-8.4 38.007-8.064 54.743 1.598 16.735 9.662 17.402 23.32 2.964 31.719-14.44 8.399-38.008 8.063-54.743-1.6-16.736-9.661-17.403-23.318-2.964-31.717" fill="#0095D5"/><path d="M430.692 543L222.846 423l-25.98 15L404.71 558l25.981-15" fill-opacity=".2" fill="#000"/></g></svg>